<svg xmlns="http://www.w3.org/2000/svg" viewBox="0 0 120 160">
  <defs>
    <radialGradient id="br_well_a2" cx="40%" cy="30%" r="65%">
      <stop offset="0%" stop-color="#f0ffff"/>
      <stop offset="100%" stop-color="#20a0d8"/>
    </radialGradient>
    <radialGradient id="br_well_a2_b" cx="38%" cy="26%" r="68%">
      <stop offset="0%" stop-color="#c8f8ff"/>
      <stop offset="100%" stop-color="#1888c0"/>
    </radialGradient>
    <radialGradient id="br_well_a2_aura" cx="50%" cy="45%" r="55%">
      <stop offset="0%" stop-color="#60d0f0" stop-opacity="0.25"/>
      <stop offset="100%" stop-color="#60d0f0" stop-opacity="0"/>
    </radialGradient>
  </defs>
  <ellipse cx="60" cy="154" rx="28" ry="8" fill="#123648" fill-opacity="0.6"/>
  <ellipse cx="60" cy="150" rx="21" ry="5.5" fill="#1c5878" fill-opacity="0.5"/>
  <ellipse cx="60" cy="147" rx="12.6" ry="3.5" fill="#60c8e8" fill-opacity="0.4"/>
  <ellipse cx="60" cy="70" rx="68" ry="86" fill="url(#br_well_a2_aura)"/>
  <ellipse cx="60" cy="106.4" rx="22.6" ry="35.6" fill="url(#br_well_a2_b)" stroke="#0c3850" stroke-width="1.8"/>
  <path d="M40,93.94 Q23.56,95.94 19.56,108.74" fill="#1888c0" fill-opacity="0.85"/>
  <path d="M80,93.94 Q96.44,95.94 100.44,108.74" fill="#1888c0" fill-opacity="0.85"/>
  <line x1="24.29" y1="45" x2="11.14" y2="40.21" stroke="#e0fbff" stroke-width="1.4" stroke-opacity="0.55"/>
  <line x1="38.2" y1="26.87" x2="30.17" y2="15.4" stroke="#e0fbff" stroke-width="1.4" stroke-opacity="0.55"/>
  <line x1="60" y1="20" x2="60" y2="6" stroke="#e0fbff" stroke-width="1.4" stroke-opacity="0.55"/>
  <line x1="81.8" y1="26.87" x2="89.83" y2="15.4" stroke="#e0fbff" stroke-width="1.4" stroke-opacity="0.55"/>
  <line x1="95.71" y1="45" x2="108.86" y2="40.21" stroke="#e0fbff" stroke-width="1.4" stroke-opacity="0.55"/>
  <circle cx="14" cy="38" r="2.2" fill="#e0fbff" fill-opacity="0.75"/>
  <circle cx="106" cy="38" r="2.2" fill="#e0fbff" fill-opacity="0.75"/>
  <circle cx="8" cy="68" r="2.2" fill="#e0fbff" fill-opacity="0.75"/>
  <circle cx="112" cy="68" r="2.2" fill="#e0fbff" fill-opacity="0.75"/>
  <ellipse cx="60" cy="58" rx="31.4" ry="29.52" fill="url(#br_well_a2)" stroke="#0c3850" stroke-width="1.8"/>
  <path d="M51,38 Q60,33.05 69,38" stroke="#e0fbff" stroke-width="2.6" fill="none" stroke-opacity="0.95" stroke-linecap="round"/>
  <path d="M45.8,33.4 Q60,25.59 74.2,33.4" stroke="#e0fbff" stroke-width="2.6" fill="none" stroke-opacity="0.82" stroke-linecap="round"/>
  <path d="M40.6,28.8 Q60,18.13 79.4,28.8" stroke="#e0fbff" stroke-width="2.6" fill="none" stroke-opacity="0.69" stroke-linecap="round"/>
  <path d="M60,20 Q55,28 60,34 Q65,28 60,20Z" fill="#f0ffff" stroke="#e0fbff" stroke-width="0.6"/>
  <ellipse cx="49.8" cy="58" rx="8" ry="7.2" fill="white" stroke="#0c3850" stroke-width="1.2"/>
  <circle cx="49.8" cy="59" r="4.8" fill="#0c3850"/>
  <circle cx="51.72" cy="55.6" r="1.92" fill="white"/>
  <circle cx="48.36" cy="60.4" r="0.77" fill="white" fill-opacity="0.8"/>
  <ellipse cx="70.2" cy="58" rx="8" ry="7.2" fill="white" stroke="#0c3850" stroke-width="1.2"/>
  <circle cx="70.2" cy="59" r="4.8" fill="#0c3850"/>
  <circle cx="72.12" cy="55.6" r="1.92" fill="white"/>
  <circle cx="68.76" cy="60.4" r="0.77" fill="white" fill-opacity="0.8"/>
  <path d="M54,75.27 Q60,80.67 66,75.27" stroke="#0c3850" stroke-width="2.4" fill="none" stroke-linecap="round"/>
  <ellipse cx="30" cy="68.99" rx="7" ry="4.5" fill="#e0fbff" fill-opacity="0.4"/>
  <ellipse cx="90" cy="68.99" rx="7" ry="4.5" fill="#e0fbff" fill-opacity="0.4"/>

</svg>
