<svg xmlns="http://www.w3.org/2000/svg" viewBox="0 0 120 160">
  <defs>
    <radialGradient id="young_well_3" cx="40%" cy="30%" r="65%">
      <stop offset="0%" stop-color="#dff6ff"/>
      <stop offset="100%" stop-color="#4098c0"/>
    </radialGradient>
    <radialGradient id="young_well_3_b" cx="38%" cy="26%" r="68%">
      <stop offset="0%" stop-color="#b8ecff"/>
      <stop offset="100%" stop-color="#2878a8"/>
    </radialGradient>
  </defs>
  <ellipse cx="60" cy="154" rx="31" ry="8" fill="#123648" fill-opacity="0.6"/>
  <ellipse cx="60" cy="150" rx="23.25" ry="5.5" fill="#1c5878" fill-opacity="0.5"/>
  <ellipse cx="60" cy="147" rx="13.95" ry="3.5" fill="#60c8e8" fill-opacity="0.4"/>
  <ellipse cx="60" cy="122" rx="19" ry="28" fill="url(#young_well_3_b)" stroke="#144860" stroke-width="1.5"/>
  <path d="M40,113.6 Q24.22,115.6 20.22,126.2" fill="#2878a8" fill-opacity="0.85"/>
  <path d="M80,113.6 Q95.78,115.6 99.78,126.2" fill="#2878a8" fill-opacity="0.85"/>
  <ellipse cx="60" cy="81" rx="26.6" ry="25.27" fill="url(#young_well_3)" stroke="#144860" stroke-width="1.5"/>
  <ellipse cx="48.8" cy="81" rx="10.5" ry="11.34" fill="white" stroke="#144860" stroke-width="1.2"/>
  <circle cx="48.8" cy="82" r="6.51" fill="#144860"/>
  <circle cx="51.08" cy="78.4" r="2.93" fill="white"/>
  <ellipse cx="71.2" cy="81" rx="10.5" ry="11.34" fill="white" stroke="#144860" stroke-width="1.2"/>
  <circle cx="71.2" cy="82" r="6.51" fill="#144860"/>
  <circle cx="73.48" cy="78.4" r="2.93" fill="white"/>
  <path d="M55,95.63 Q60,97.63 65,95.63" stroke="#144860" stroke-width="2" fill="none" stroke-linecap="round"/>
  <ellipse cx="30" cy="90.31" rx="7" ry="4.5" fill="#eafcff" fill-opacity="0.3"/>
  <ellipse cx="90" cy="90.31" rx="7" ry="4.5" fill="#eafcff" fill-opacity="0.3"/>

</svg>
