<svg xmlns="http://www.w3.org/2000/svg" viewBox="0 0 120 160">
  <defs>
    <radialGradient id="br_well_b2" cx="40%" cy="30%" r="65%">
      <stop offset="0%" stop-color="#a8d8e8"/>
      <stop offset="100%" stop-color="#1c5878"/>
    </radialGradient>
    <radialGradient id="br_well_b2_b" cx="38%" cy="26%" r="68%">
      <stop offset="0%" stop-color="#8ac0d8"/>
      <stop offset="100%" stop-color="#123c54"/>
    </radialGradient>
  </defs>
  <ellipse cx="60" cy="154" rx="28" ry="8" fill="#123648" fill-opacity="0.6"/>
  <ellipse cx="60" cy="150" rx="21" ry="5.5" fill="#1c5878" fill-opacity="0.5"/>
  <ellipse cx="60" cy="147" rx="12.6" ry="3.5" fill="#60c8e8" fill-opacity="0.4"/>
  <ellipse cx="60" cy="106.4" rx="22.6" ry="35.6" fill="url(#br_well_b2_b)" stroke="#0a2c3c" stroke-width="1.8"/>
  <path d="M40,93.94 Q23.56,95.94 19.56,108.74" fill="#123c54" fill-opacity="0.85"/>
  <path d="M80,93.94 Q96.44,95.94 100.44,108.74" fill="#123c54" fill-opacity="0.85"/>
  <ellipse cx="60" cy="58" rx="31.4" ry="29.52" fill="url(#br_well_b2)" stroke="#0a2c3c" stroke-width="1.8"/>
  <path d="M51,38 Q60,33.05 69,38" stroke="#c8e8f0" stroke-width="2.6" fill="none" stroke-opacity="0.95" stroke-linecap="round"/>
  <path d="M45.8,33.4 Q60,25.59 74.2,33.4" stroke="#c8e8f0" stroke-width="2.6" fill="none" stroke-opacity="0.82" stroke-linecap="round"/>
  <path d="M40.6,28.8 Q60,18.13 79.4,28.8" stroke="#c8e8f0" stroke-width="2.6" fill="none" stroke-opacity="0.69" stroke-linecap="round"/>
  <path d="M60,20 Q55,28 60,34 Q65,28 60,20Z" fill="#a8d8e8" stroke="#c8e8f0" stroke-width="0.6"/>
  <ellipse cx="49.8" cy="58" rx="8" ry="7.2" fill="white" stroke="#0a2c3c" stroke-width="1.2"/>
  <circle cx="49.8" cy="59" r="4.8" fill="#0a2c3c"/>
  <path d="M42.6,48.8 Q49.8,46 57,48.8" stroke="#0a2c3c" stroke-width="1.1" fill="none" stroke-linecap="round"/>
  <circle cx="51.48" cy="56.08" r="1.44" fill="white" fill-opacity="0.85"/>
  <ellipse cx="70.2" cy="58" rx="8" ry="7.2" fill="white" stroke="#0a2c3c" stroke-width="1.2"/>
  <circle cx="70.2" cy="59" r="4.8" fill="#0a2c3c"/>
  <path d="M63,48.8 Q70.2,46 77.4,48.8" stroke="#0a2c3c" stroke-width="1.1" fill="none" stroke-linecap="round"/>
  <circle cx="71.88" cy="56.08" r="1.44" fill="white" fill-opacity="0.85"/>
  <path d="M54,75.27 Q60,77.67 66,75.27" stroke="#0a2c3c" stroke-width="2" fill="none" stroke-linecap="round"/>
  <ellipse cx="30" cy="68.99" rx="7" ry="4.5" fill="#c8e8f0" fill-opacity="0.18"/>
  <ellipse cx="90" cy="68.99" rx="7" ry="4.5" fill="#c8e8f0" fill-opacity="0.18"/>

</svg>
