<svg xmlns="http://www.w3.org/2000/svg" viewBox="0 0 120 160">
  <defs>
    <radialGradient id="br_well_a5" cx="40%" cy="30%" r="65%">
      <stop offset="0%" stop-color="#f0ffff"/>
      <stop offset="100%" stop-color="#20a0d8"/>
    </radialGradient>
    <radialGradient id="br_well_a5_b" cx="38%" cy="26%" r="68%">
      <stop offset="0%" stop-color="#c8f8ff"/>
      <stop offset="100%" stop-color="#1888c0"/>
    </radialGradient>
    <radialGradient id="br_well_a5_aura" cx="50%" cy="45%" r="55%">
      <stop offset="0%" stop-color="#60d0f0" stop-opacity="0.4"/>
      <stop offset="100%" stop-color="#60d0f0" stop-opacity="0"/>
    </radialGradient>
  </defs>
  <ellipse cx="60" cy="154" rx="37" ry="8" fill="#123648" fill-opacity="0.6"/>
  <ellipse cx="60" cy="150" rx="27.75" ry="5.5" fill="#1c5878" fill-opacity="0.5"/>
  <ellipse cx="60" cy="147" rx="16.65" ry="3.5" fill="#60c8e8" fill-opacity="0.4"/>
  <ellipse cx="60" cy="70" rx="80" ry="98" fill="url(#br_well_a5_aura)"/>
  <ellipse cx="60" cy="101" rx="26.5" ry="44" fill="url(#br_well_a5_b)" stroke="#0c3850" stroke-width="1.8"/>
  <path d="M40,85.6 Q21.58,87.6 17.58,107" fill="#1888c0" fill-opacity="0.85"/>
  <path d="M80,85.6 Q98.42,87.6 102.42,107" fill="#1888c0" fill-opacity="0.85"/>
  <line x1="18.65" y1="36.95" x2="-2.96" y2="29.08" stroke="#e0fbff" stroke-width="1.4" stroke-opacity="0.55"/>
  <line x1="34.76" y1="15.96" x2="21.57" y2="-2.88" stroke="#e0fbff" stroke-width="1.4" stroke-opacity="0.55"/>
  <line x1="60" y1="8" x2="60" y2="-15" stroke="#e0fbff" stroke-width="1.4" stroke-opacity="0.55"/>
  <line x1="85.24" y1="15.96" x2="98.43" y2="-2.88" stroke="#e0fbff" stroke-width="1.4" stroke-opacity="0.55"/>
  <line x1="101.35" y1="36.95" x2="122.96" y2="29.08" stroke="#e0fbff" stroke-width="1.4" stroke-opacity="0.55"/>
  <circle cx="14" cy="32" r="3.1" fill="#e0fbff" fill-opacity="0.75"/>
  <circle cx="106" cy="32" r="3.1" fill="#e0fbff" fill-opacity="0.75"/>
  <circle cx="8" cy="62" r="3.1" fill="#e0fbff" fill-opacity="0.75"/>
  <circle cx="112" cy="62" r="3.1" fill="#e0fbff" fill-opacity="0.75"/>
  <circle cx="30" cy="10" r="3.1" fill="#e0fbff" fill-opacity="0.75"/>
  <circle cx="90" cy="10" r="3.1" fill="#e0fbff" fill-opacity="0.75"/>
  <ellipse cx="60" cy="52" rx="38" ry="35.72" fill="url(#br_well_a5)" stroke="#0c3850" stroke-width="1.8"/>
  <path d="M51,32 Q60,27.05 69,32" stroke="#e0fbff" stroke-width="3.5" fill="none" stroke-opacity="0.95" stroke-linecap="round"/>
  <path d="M44,25 Q60,16.2 76,25" stroke="#e0fbff" stroke-width="3.5" fill="none" stroke-opacity="0.82" stroke-linecap="round"/>
  <path d="M37,18 Q60,5.35 83,18" stroke="#e0fbff" stroke-width="3.5" fill="none" stroke-opacity="0.69" stroke-linecap="round"/>
  <path d="M30,11 Q60,-5.5 90,11" stroke="#e0fbff" stroke-width="3.5" fill="none" stroke-opacity="0.56" stroke-linecap="round"/>
  <path d="M23,4 Q60,-16.35 97,4" stroke="#e0fbff" stroke-width="3.5" fill="none" stroke-opacity="0.43" stroke-linecap="round"/>
  <path d="M16,-3 Q60,-27.2 104,-3" stroke="#e0fbff" stroke-width="3.5" fill="none" stroke-opacity="0.3" stroke-linecap="round"/>
  <path d="M60,2 Q55,10 60,16 Q65,10 60,2Z" fill="#f0ffff" stroke="#e0fbff" stroke-width="0.6"/>
  <ellipse cx="52.5" cy="52" rx="5" ry="3.15" fill="white" stroke="#0c3850" stroke-width="1.2"/>
  <circle cx="52.5" cy="53" r="3" fill="#0c3850"/>
  <circle cx="53.7" cy="50.5" r="1.2" fill="white"/>
  <circle cx="51.6" cy="53.5" r="0.48" fill="white" fill-opacity="0.8"/>
  <ellipse cx="67.5" cy="52" rx="5" ry="3.15" fill="white" stroke="#0c3850" stroke-width="1.2"/>
  <circle cx="67.5" cy="53" r="3" fill="#0c3850"/>
  <circle cx="68.7" cy="50.5" r="1.2" fill="white"/>
  <circle cx="66.6" cy="53.5" r="0.48" fill="white" fill-opacity="0.8"/>
  <path d="M54,72.9 Q60,78.3 66,72.9" stroke="#0c3850" stroke-width="2.4" fill="none" stroke-linecap="round"/>
  <ellipse cx="30" cy="65.3" rx="7" ry="4.5" fill="#e0fbff" fill-opacity="0.55"/>
  <ellipse cx="90" cy="65.3" rx="7" ry="4.5" fill="#e0fbff" fill-opacity="0.55"/>

</svg>
