<svg xmlns="http://www.w3.org/2000/svg" viewBox="0 0 120 160">
  <defs>
    <radialGradient id="br_well_a3" cx="40%" cy="30%" r="65%">
      <stop offset="0%" stop-color="#f0ffff"/>
      <stop offset="100%" stop-color="#20a0d8"/>
    </radialGradient>
    <radialGradient id="br_well_a3_b" cx="38%" cy="26%" r="68%">
      <stop offset="0%" stop-color="#c8f8ff"/>
      <stop offset="100%" stop-color="#1888c0"/>
    </radialGradient>
    <radialGradient id="br_well_a3_aura" cx="50%" cy="45%" r="55%">
      <stop offset="0%" stop-color="#60d0f0" stop-opacity="0.3"/>
      <stop offset="100%" stop-color="#60d0f0" stop-opacity="0"/>
    </radialGradient>
  </defs>
  <ellipse cx="60" cy="154" rx="31" ry="8" fill="#123648" fill-opacity="0.6"/>
  <ellipse cx="60" cy="150" rx="23.25" ry="5.5" fill="#1c5878" fill-opacity="0.5"/>
  <ellipse cx="60" cy="147" rx="13.95" ry="3.5" fill="#60c8e8" fill-opacity="0.4"/>
  <ellipse cx="60" cy="70" rx="72" ry="90" fill="url(#br_well_a3_aura)"/>
  <ellipse cx="60" cy="104.6" rx="23.9" ry="38.4" fill="url(#br_well_a3_b)" stroke="#0c3850" stroke-width="1.8"/>
  <path d="M40,91.16 Q22.9,93.16 18.9,108.16" fill="#1888c0" fill-opacity="0.85"/>
  <path d="M80,91.16 Q97.1,93.16 101.1,108.16" fill="#1888c0" fill-opacity="0.85"/>
  <line x1="22.41" y1="42.32" x2="6.44" y2="36.5" stroke="#e0fbff" stroke-width="1.4" stroke-opacity="0.55"/>
  <line x1="37.06" y1="23.23" x2="27.31" y2="9.31" stroke="#e0fbff" stroke-width="1.4" stroke-opacity="0.55"/>
  <line x1="60" y1="16" x2="60" y2="-1" stroke="#e0fbff" stroke-width="1.4" stroke-opacity="0.55"/>
  <line x1="82.94" y1="23.23" x2="92.69" y2="9.31" stroke="#e0fbff" stroke-width="1.4" stroke-opacity="0.55"/>
  <line x1="97.59" y1="42.32" x2="113.56" y2="36.5" stroke="#e0fbff" stroke-width="1.4" stroke-opacity="0.55"/>
  <circle cx="14" cy="36" r="2.5" fill="#e0fbff" fill-opacity="0.75"/>
  <circle cx="106" cy="36" r="2.5" fill="#e0fbff" fill-opacity="0.75"/>
  <circle cx="8" cy="66" r="2.5" fill="#e0fbff" fill-opacity="0.75"/>
  <circle cx="112" cy="66" r="2.5" fill="#e0fbff" fill-opacity="0.75"/>
  <circle cx="30" cy="14" r="2.5" fill="#e0fbff" fill-opacity="0.75"/>
  <circle cx="90" cy="14" r="2.5" fill="#e0fbff" fill-opacity="0.75"/>
  <ellipse cx="60" cy="56" rx="33.6" ry="31.58" fill="url(#br_well_a3)" stroke="#0c3850" stroke-width="1.8"/>
  <path d="M51,36 Q60,31.05 69,36" stroke="#e0fbff" stroke-width="2.9" fill="none" stroke-opacity="0.95" stroke-linecap="round"/>
  <path d="M45.2,30.6 Q60,22.46 74.8,30.6" stroke="#e0fbff" stroke-width="2.9" fill="none" stroke-opacity="0.82" stroke-linecap="round"/>
  <path d="M39.4,25.2 Q60,13.87 80.6,25.2" stroke="#e0fbff" stroke-width="2.9" fill="none" stroke-opacity="0.69" stroke-linecap="round"/>
  <path d="M33.6,19.8 Q60,5.28 86.4,19.8" stroke="#e0fbff" stroke-width="2.9" fill="none" stroke-opacity="0.56" stroke-linecap="round"/>
  <path d="M60,14 Q55,22 60,28 Q65,22 60,14Z" fill="#f0ffff" stroke="#e0fbff" stroke-width="0.6"/>
  <ellipse cx="50.7" cy="56" rx="7" ry="5.67" fill="white" stroke="#0c3850" stroke-width="1.2"/>
  <circle cx="50.7" cy="57" r="4.2" fill="#0c3850"/>
  <circle cx="52.38" cy="53.9" r="1.68" fill="white"/>
  <circle cx="49.44" cy="58.1" r="0.67" fill="white" fill-opacity="0.8"/>
  <ellipse cx="69.3" cy="56" rx="7" ry="5.67" fill="white" stroke="#0c3850" stroke-width="1.2"/>
  <circle cx="69.3" cy="57" r="4.2" fill="#0c3850"/>
  <circle cx="70.98" cy="53.9" r="1.68" fill="white"/>
  <circle cx="68.04" cy="58.1" r="0.67" fill="white" fill-opacity="0.8"/>
  <path d="M54,74.48 Q60,79.88 66,74.48" stroke="#0c3850" stroke-width="2.4" fill="none" stroke-linecap="round"/>
  <ellipse cx="30" cy="67.76" rx="7" ry="4.5" fill="#e0fbff" fill-opacity="0.45"/>
  <ellipse cx="90" cy="67.76" rx="7" ry="4.5" fill="#e0fbff" fill-opacity="0.45"/>

</svg>
