<svg xmlns="http://www.w3.org/2000/svg" viewBox="0 0 120 160">
  <defs>
    <radialGradient id="br_well_a4" cx="40%" cy="30%" r="65%">
      <stop offset="0%" stop-color="#f0ffff"/>
      <stop offset="100%" stop-color="#20a0d8"/>
    </radialGradient>
    <radialGradient id="br_well_a4_b" cx="38%" cy="26%" r="68%">
      <stop offset="0%" stop-color="#c8f8ff"/>
      <stop offset="100%" stop-color="#1888c0"/>
    </radialGradient>
    <radialGradient id="br_well_a4_aura" cx="50%" cy="45%" r="55%">
      <stop offset="0%" stop-color="#60d0f0" stop-opacity="0.35"/>
      <stop offset="100%" stop-color="#60d0f0" stop-opacity="0"/>
    </radialGradient>
  </defs>
  <ellipse cx="60" cy="154" rx="34" ry="8" fill="#123648" fill-opacity="0.6"/>
  <ellipse cx="60" cy="150" rx="25.5" ry="5.5" fill="#1c5878" fill-opacity="0.5"/>
  <ellipse cx="60" cy="147" rx="15.3" ry="3.5" fill="#60c8e8" fill-opacity="0.4"/>
  <ellipse cx="60" cy="70" rx="76" ry="94" fill="url(#br_well_a4_aura)"/>
  <ellipse cx="60" cy="102.8" rx="25.2" ry="41.2" fill="url(#br_well_a4_b)" stroke="#0c3850" stroke-width="1.8"/>
  <path d="M40,88.38 Q22.24,90.38 18.24,107.58" fill="#1888c0" fill-opacity="0.85"/>
  <path d="M80,88.38 Q97.76,90.38 101.76,107.58" fill="#1888c0" fill-opacity="0.85"/>
  <line x1="20.53" y1="39.64" x2="1.74" y2="32.79" stroke="#e0fbff" stroke-width="1.4" stroke-opacity="0.55"/>
  <line x1="35.91" y1="19.6" x2="24.44" y2="3.21" stroke="#e0fbff" stroke-width="1.4" stroke-opacity="0.55"/>
  <line x1="60" y1="12" x2="60" y2="-8" stroke="#e0fbff" stroke-width="1.4" stroke-opacity="0.55"/>
  <line x1="84.09" y1="19.6" x2="95.56" y2="3.21" stroke="#e0fbff" stroke-width="1.4" stroke-opacity="0.55"/>
  <line x1="99.47" y1="39.64" x2="118.26" y2="32.79" stroke="#e0fbff" stroke-width="1.4" stroke-opacity="0.55"/>
  <circle cx="14" cy="34" r="2.8" fill="#e0fbff" fill-opacity="0.75"/>
  <circle cx="106" cy="34" r="2.8" fill="#e0fbff" fill-opacity="0.75"/>
  <circle cx="8" cy="64" r="2.8" fill="#e0fbff" fill-opacity="0.75"/>
  <circle cx="112" cy="64" r="2.8" fill="#e0fbff" fill-opacity="0.75"/>
  <circle cx="30" cy="12" r="2.8" fill="#e0fbff" fill-opacity="0.75"/>
  <circle cx="90" cy="12" r="2.8" fill="#e0fbff" fill-opacity="0.75"/>
  <ellipse cx="60" cy="54" rx="35.8" ry="33.65" fill="url(#br_well_a4)" stroke="#0c3850" stroke-width="1.8"/>
  <path d="M51,34 Q60,29.05 69,34" stroke="#e0fbff" stroke-width="3.2" fill="none" stroke-opacity="0.95" stroke-linecap="round"/>
  <path d="M44.6,27.8 Q60,19.33 75.4,27.8" stroke="#e0fbff" stroke-width="3.2" fill="none" stroke-opacity="0.82" stroke-linecap="round"/>
  <path d="M38.2,21.6 Q60,9.61 81.8,21.6" stroke="#e0fbff" stroke-width="3.2" fill="none" stroke-opacity="0.69" stroke-linecap="round"/>
  <path d="M31.8,15.4 Q60,-0.11 88.2,15.4" stroke="#e0fbff" stroke-width="3.2" fill="none" stroke-opacity="0.56" stroke-linecap="round"/>
  <path d="M25.4,9.2 Q60,-9.83 94.6,9.2" stroke="#e0fbff" stroke-width="3.2" fill="none" stroke-opacity="0.43" stroke-linecap="round"/>
  <path d="M60,8 Q55,16 60,22 Q65,16 60,8Z" fill="#f0ffff" stroke="#e0fbff" stroke-width="0.6"/>
  <ellipse cx="51.6" cy="54" rx="6" ry="4.32" fill="white" stroke="#0c3850" stroke-width="1.2"/>
  <circle cx="51.6" cy="55" r="3.6" fill="#0c3850"/>
  <circle cx="53.04" cy="52.2" r="1.44" fill="white"/>
  <circle cx="50.52" cy="55.8" r="0.58" fill="white" fill-opacity="0.8"/>
  <ellipse cx="68.4" cy="54" rx="6" ry="4.32" fill="white" stroke="#0c3850" stroke-width="1.2"/>
  <circle cx="68.4" cy="55" r="3.6" fill="#0c3850"/>
  <circle cx="69.84" cy="52.2" r="1.44" fill="white"/>
  <circle cx="67.32" cy="55.8" r="0.58" fill="white" fill-opacity="0.8"/>
  <path d="M54,73.69 Q60,79.09 66,73.69" stroke="#0c3850" stroke-width="2.4" fill="none" stroke-linecap="round"/>
  <ellipse cx="30" cy="66.53" rx="7" ry="4.5" fill="#e0fbff" fill-opacity="0.5"/>
  <ellipse cx="90" cy="66.53" rx="7" ry="4.5" fill="#e0fbff" fill-opacity="0.5"/>

</svg>
