<svg xmlns="http://www.w3.org/2000/svg" viewBox="0 0 120 160">
  <defs>
    <radialGradient id="br_flamm_a3" cx="40%" cy="30%" r="65%">
      <stop offset="0%" stop-color="#fff6c0"/>
      <stop offset="100%" stop-color="#ff8010"/>
    </radialGradient>
    <radialGradient id="br_flamm_a3_b" cx="38%" cy="26%" r="68%">
      <stop offset="0%" stop-color="#ffde80"/>
      <stop offset="100%" stop-color="#ff6a10"/>
    </radialGradient>
    <radialGradient id="br_flamm_a3_aura" cx="50%" cy="45%" r="55%">
      <stop offset="0%" stop-color="#ffdd40" stop-opacity="0.3"/>
      <stop offset="100%" stop-color="#ffdd40" stop-opacity="0"/>
    </radialGradient>
  </defs>
  <ellipse cx="60" cy="153" rx="29" ry="9" fill="#241a14"/>
  <ellipse cx="60" cy="149" rx="20.3" ry="6" fill="#3a2418"/>
  <circle cx="60" cy="146" r="9" fill="#ff9020" fill-opacity="0.35"/>
  <ellipse cx="60" cy="70" rx="72" ry="90" fill="url(#br_flamm_a3_aura)"/>
  <ellipse cx="60" cy="104.6" rx="23.9" ry="38.4" fill="url(#br_flamm_a3_b)" stroke="#a02c08" stroke-width="1.8"/>
  <path d="M40,91.16 Q21.5,87.16 19.5,72.66" stroke="#ff6a10" stroke-width="5" fill="none" stroke-linecap="round"/>
  <path d="M80,91.16 Q98.5,87.16 100.5,72.66" stroke="#ff6a10" stroke-width="5" fill="none" stroke-linecap="round"/>
  <line x1="22.41" y1="42.32" x2="6.44" y2="36.5" stroke="#fff2a0" stroke-width="1.4" stroke-opacity="0.55"/>
  <line x1="37.06" y1="23.23" x2="27.31" y2="9.31" stroke="#fff2a0" stroke-width="1.4" stroke-opacity="0.55"/>
  <line x1="60" y1="16" x2="60" y2="-1" stroke="#fff2a0" stroke-width="1.4" stroke-opacity="0.55"/>
  <line x1="82.94" y1="23.23" x2="92.69" y2="9.31" stroke="#fff2a0" stroke-width="1.4" stroke-opacity="0.55"/>
  <line x1="97.59" y1="42.32" x2="113.56" y2="36.5" stroke="#fff2a0" stroke-width="1.4" stroke-opacity="0.55"/>
  <circle cx="14" cy="36" r="2.5" fill="#fff2a0" fill-opacity="0.75"/>
  <circle cx="106" cy="36" r="2.5" fill="#fff2a0" fill-opacity="0.75"/>
  <circle cx="8" cy="66" r="2.5" fill="#fff2a0" fill-opacity="0.75"/>
  <circle cx="112" cy="66" r="2.5" fill="#fff2a0" fill-opacity="0.75"/>
  <circle cx="30" cy="14" r="2.5" fill="#fff2a0" fill-opacity="0.75"/>
  <circle cx="90" cy="14" r="2.5" fill="#fff2a0" fill-opacity="0.75"/>
  <ellipse cx="60" cy="56" rx="33.6" ry="31.58" fill="url(#br_flamm_a3)" stroke="#a02c08" stroke-width="1.8"/>
  <path d="M36.65,64.08 Q41.65,30.08 46.65,64.08 Q41.65,55.58 36.65,64.08Z" fill="#fff2a0" stroke="#fff6c0" stroke-width="0.6"/>
  <path d="M39.65,58.13 Q41.65,37.73 43.65,58.13Z" fill="#fff6c0" fill-opacity="0.85"/>
  <path d="M44.96,59.41 Q49.96,18.41 54.96,59.41 Q49.96,49.16 44.96,59.41Z" fill="#fff2a0" stroke="#fff6c0" stroke-width="0.6"/>
  <path d="M47.96,52.24 Q49.96,27.64 51.96,52.24Z" fill="#fff6c0" fill-opacity="0.85"/>
  <path d="M55,62 Q60,14 65,62 Q60,50 55,62Z" fill="#fff2a0" stroke="#fff6c0" stroke-width="0.6"/>
  <path d="M58,53.6 Q60,24.8 62,53.6Z" fill="#fff6c0" fill-opacity="0.85"/>
  <path d="M65.04,59.41 Q70.04,18.41 75.04,59.41 Q70.04,49.16 65.04,59.41Z" fill="#fff2a0" stroke="#fff6c0" stroke-width="0.6"/>
  <path d="M68.04,52.24 Q70.04,27.64 72.04,52.24Z" fill="#fff6c0" fill-opacity="0.85"/>
  <path d="M73.35,64.08 Q78.35,30.08 83.35,64.08 Q78.35,55.58 73.35,64.08Z" fill="#fff2a0" stroke="#fff6c0" stroke-width="0.6"/>
  <path d="M76.35,58.13 Q78.35,37.73 80.35,58.13Z" fill="#fff6c0" fill-opacity="0.85"/>
  <ellipse cx="50.7" cy="56" rx="7" ry="5.67" fill="white" stroke="#a02c08" stroke-width="1.2"/>
  <circle cx="50.7" cy="57" r="4.2" fill="#a02c08"/>
  <circle cx="52.38" cy="53.9" r="1.68" fill="white"/>
  <circle cx="49.44" cy="58.1" r="0.67" fill="white" fill-opacity="0.8"/>
  <ellipse cx="69.3" cy="56" rx="7" ry="5.67" fill="white" stroke="#a02c08" stroke-width="1.2"/>
  <circle cx="69.3" cy="57" r="4.2" fill="#a02c08"/>
  <circle cx="70.98" cy="53.9" r="1.68" fill="white"/>
  <circle cx="68.04" cy="58.1" r="0.67" fill="white" fill-opacity="0.8"/>
  <path d="M54,74.48 Q60,79.88 66,74.48" stroke="#a02c08" stroke-width="2.4" fill="none" stroke-linecap="round"/>
  <ellipse cx="30" cy="67.76" rx="7" ry="4.5" fill="#fff2a0" fill-opacity="0.5"/>
  <ellipse cx="90" cy="67.76" rx="7" ry="4.5" fill="#fff2a0" fill-opacity="0.5"/>

</svg>
