<svg xmlns="http://www.w3.org/2000/svg" viewBox="0 0 120 160">
  <defs>
    <radialGradient id="br_flamm_a2" cx="40%" cy="30%" r="65%">
      <stop offset="0%" stop-color="#fff6c0"/>
      <stop offset="100%" stop-color="#ff8010"/>
    </radialGradient>
    <radialGradient id="br_flamm_a2_b" cx="38%" cy="26%" r="68%">
      <stop offset="0%" stop-color="#ffde80"/>
      <stop offset="100%" stop-color="#ff6a10"/>
    </radialGradient>
    <radialGradient id="br_flamm_a2_aura" cx="50%" cy="45%" r="55%">
      <stop offset="0%" stop-color="#ffdd40" stop-opacity="0.25"/>
      <stop offset="100%" stop-color="#ffdd40" stop-opacity="0"/>
    </radialGradient>
  </defs>
  <ellipse cx="60" cy="153" rx="26" ry="9" fill="#241a14"/>
  <ellipse cx="60" cy="149" rx="18.2" ry="6" fill="#3a2418"/>
  <circle cx="60" cy="146" r="8" fill="#ff9020" fill-opacity="0.35"/>
  <ellipse cx="60" cy="70" rx="68" ry="86" fill="url(#br_flamm_a2_aura)"/>
  <ellipse cx="60" cy="106.4" rx="22.6" ry="35.6" fill="url(#br_flamm_a2_b)" stroke="#a02c08" stroke-width="1.8"/>
  <path d="M40,93.94 Q24,89.94 22,77.94" stroke="#ff6a10" stroke-width="5" fill="none" stroke-linecap="round"/>
  <path d="M80,93.94 Q96,89.94 98,77.94" stroke="#ff6a10" stroke-width="5" fill="none" stroke-linecap="round"/>
  <line x1="24.29" y1="45" x2="11.14" y2="40.21" stroke="#fff2a0" stroke-width="1.4" stroke-opacity="0.55"/>
  <line x1="38.2" y1="26.87" x2="30.17" y2="15.4" stroke="#fff2a0" stroke-width="1.4" stroke-opacity="0.55"/>
  <line x1="60" y1="20" x2="60" y2="6" stroke="#fff2a0" stroke-width="1.4" stroke-opacity="0.55"/>
  <line x1="81.8" y1="26.87" x2="89.83" y2="15.4" stroke="#fff2a0" stroke-width="1.4" stroke-opacity="0.55"/>
  <line x1="95.71" y1="45" x2="108.86" y2="40.21" stroke="#fff2a0" stroke-width="1.4" stroke-opacity="0.55"/>
  <circle cx="14" cy="38" r="2.2" fill="#fff2a0" fill-opacity="0.75"/>
  <circle cx="106" cy="38" r="2.2" fill="#fff2a0" fill-opacity="0.75"/>
  <circle cx="8" cy="68" r="2.2" fill="#fff2a0" fill-opacity="0.75"/>
  <circle cx="112" cy="68" r="2.2" fill="#fff2a0" fill-opacity="0.75"/>
  <ellipse cx="60" cy="58" rx="31.4" ry="29.52" fill="url(#br_flamm_a2)" stroke="#a02c08" stroke-width="1.8"/>
  <path d="M38.35,63.16 Q42.85,35.66 47.35,63.16 Q42.85,56.29 38.35,63.16Z" fill="#fff2a0" stroke="#fff6c0" stroke-width="0.6"/>
  <path d="M41.05,58.35 Q42.85,41.85 44.65,58.35Z" fill="#fff6c0" fill-opacity="0.85"/>
  <path d="M49.06,57.43 Q53.56,22.93 58.06,57.43 Q53.56,48.81 49.06,57.43Z" fill="#fff2a0" stroke="#fff6c0" stroke-width="0.6"/>
  <path d="M51.76,51.39 Q53.56,30.69 55.36,51.39Z" fill="#fff6c0" fill-opacity="0.85"/>
  <path d="M61.94,57.43 Q66.44,22.93 70.94,57.43 Q66.44,48.81 61.94,57.43Z" fill="#fff2a0" stroke="#fff6c0" stroke-width="0.6"/>
  <path d="M64.64,51.39 Q66.44,30.69 68.24,51.39Z" fill="#fff6c0" fill-opacity="0.85"/>
  <path d="M72.65,63.16 Q77.15,35.66 81.65,63.16 Q77.15,56.29 72.65,63.16Z" fill="#fff2a0" stroke="#fff6c0" stroke-width="0.6"/>
  <path d="M75.35,58.35 Q77.15,41.85 78.95,58.35Z" fill="#fff6c0" fill-opacity="0.85"/>
  <ellipse cx="49.8" cy="58" rx="8" ry="7.2" fill="white" stroke="#a02c08" stroke-width="1.2"/>
  <circle cx="49.8" cy="59" r="4.8" fill="#a02c08"/>
  <circle cx="51.72" cy="55.6" r="1.92" fill="white"/>
  <circle cx="48.36" cy="60.4" r="0.77" fill="white" fill-opacity="0.8"/>
  <ellipse cx="70.2" cy="58" rx="8" ry="7.2" fill="white" stroke="#a02c08" stroke-width="1.2"/>
  <circle cx="70.2" cy="59" r="4.8" fill="#a02c08"/>
  <circle cx="72.12" cy="55.6" r="1.92" fill="white"/>
  <circle cx="68.76" cy="60.4" r="0.77" fill="white" fill-opacity="0.8"/>
  <path d="M54,75.27 Q60,80.67 66,75.27" stroke="#a02c08" stroke-width="2.4" fill="none" stroke-linecap="round"/>
  <ellipse cx="30" cy="68.99" rx="7" ry="4.5" fill="#fff2a0" fill-opacity="0.44999999999999996"/>
  <ellipse cx="90" cy="68.99" rx="7" ry="4.5" fill="#fff2a0" fill-opacity="0.44999999999999996"/>

</svg>
