<svg xmlns="http://www.w3.org/2000/svg" viewBox="0 0 120 160">
  <defs>
    <radialGradient id="br_flamm_c2" cx="40%" cy="30%" r="65%">
      <stop offset="0%" stop-color="#9a9488"/>
      <stop offset="100%" stop-color="#4a4038"/>
    </radialGradient>
    <radialGradient id="br_flamm_c2_b" cx="38%" cy="26%" r="68%">
      <stop offset="0%" stop-color="#807868"/>
      <stop offset="100%" stop-color="#383028"/>
    </radialGradient>
  </defs>
  <ellipse cx="60" cy="153" rx="26" ry="9" fill="#241a14"/>
  <ellipse cx="60" cy="149" rx="18.2" ry="6" fill="#3a2418"/>
  <circle cx="60" cy="146" r="8" fill="#ff9020" fill-opacity="0.35"/>
  <ellipse cx="60" cy="106.4" rx="22.6" ry="35.6" fill="url(#br_flamm_c2_b)" stroke="#201a14" stroke-width="1.8"/>
  <path d="M40,93.94 Q24,89.94 22,77.94" stroke="#383028" stroke-width="5" fill="none" stroke-linecap="round"/>
  <path d="M80,93.94 Q96,89.94 98,77.94" stroke="#383028" stroke-width="5" fill="none" stroke-linecap="round"/>
  <ellipse cx="60" cy="58" rx="31.4" ry="29.52" fill="url(#br_flamm_c2)" stroke="#201a14" stroke-width="1.8"/>
  <path d="M38.35,63.16 Q42.85,35.66 47.35,63.16 Q42.85,56.29 38.35,63.16Z" fill="#c0b8a8" stroke="#9a9488" stroke-width="0.6"/>
  <path d="M41.05,58.35 Q42.85,41.85 44.65,58.35Z" fill="#9a9488" fill-opacity="0.85"/>
  <path d="M49.06,57.43 Q53.56,22.93 58.06,57.43 Q53.56,48.81 49.06,57.43Z" fill="#c0b8a8" stroke="#9a9488" stroke-width="0.6"/>
  <path d="M51.76,51.39 Q53.56,30.69 55.36,51.39Z" fill="#9a9488" fill-opacity="0.85"/>
  <path d="M61.94,57.43 Q66.44,22.93 70.94,57.43 Q66.44,48.81 61.94,57.43Z" fill="#c0b8a8" stroke="#9a9488" stroke-width="0.6"/>
  <path d="M64.64,51.39 Q66.44,30.69 68.24,51.39Z" fill="#9a9488" fill-opacity="0.85"/>
  <path d="M72.65,63.16 Q77.15,35.66 81.65,63.16 Q77.15,56.29 72.65,63.16Z" fill="#c0b8a8" stroke="#9a9488" stroke-width="0.6"/>
  <path d="M75.35,58.35 Q77.15,41.85 78.95,58.35Z" fill="#9a9488" fill-opacity="0.85"/>
  <path d="M42,115.06 l3,5 l-2,3 l3,4" stroke="#201a14" stroke-width="1" fill="none" stroke-opacity="0.5" stroke-linecap="round"/>
  <path d="M54,125.06 l3,5 l-2,3 l3,4" stroke="#201a14" stroke-width="1" fill="none" stroke-opacity="0.5" stroke-linecap="round"/>
  <ellipse cx="48.6" cy="58" rx="8.2" ry="9.02" fill="#d8d8c8" stroke="#201a14" stroke-width="1.2"/>
  <circle cx="48.6" cy="59" r="4.92" fill="#201a14"/>
  <path d="M40.4,53.9 Q48.6,47.34 56.8,53.9" fill="#201a14" fill-opacity="0.55"/>
  <circle cx="47.12" cy="56.52" r="1.08" fill="white" fill-opacity="0.7"/>
  <ellipse cx="71.4" cy="58" rx="8.2" ry="9.02" fill="#d8d8c8" stroke="#201a14" stroke-width="1.2"/>
  <circle cx="71.4" cy="59" r="4.92" fill="#201a14"/>
  <path d="M63.2,53.9 Q71.4,47.34 79.6,53.9" fill="#201a14" fill-opacity="0.55"/>
  <circle cx="72.88" cy="56.52" r="1.08" fill="white" fill-opacity="0.7"/>
  <path d="M54,78.27 Q60,73.47 66,78.27" stroke="#201a14" stroke-width="2" fill="none" stroke-linecap="round"/>

</svg>
