<svg xmlns="http://www.w3.org/2000/svg" viewBox="0 0 120 160">
  <defs>
    <radialGradient id="br_flamm_a5" cx="40%" cy="30%" r="65%">
      <stop offset="0%" stop-color="#fff6c0"/>
      <stop offset="100%" stop-color="#ff8010"/>
    </radialGradient>
    <radialGradient id="br_flamm_a5_b" cx="38%" cy="26%" r="68%">
      <stop offset="0%" stop-color="#ffde80"/>
      <stop offset="100%" stop-color="#ff6a10"/>
    </radialGradient>
    <radialGradient id="br_flamm_a5_aura" cx="50%" cy="45%" r="55%">
      <stop offset="0%" stop-color="#ffdd40" stop-opacity="0.4"/>
      <stop offset="100%" stop-color="#ffdd40" stop-opacity="0"/>
    </radialGradient>
  </defs>
  <ellipse cx="60" cy="153" rx="35" ry="9" fill="#241a14"/>
  <ellipse cx="60" cy="149" rx="24.5" ry="6" fill="#3a2418"/>
  <circle cx="60" cy="146" r="11" fill="#ff9020" fill-opacity="0.35"/>
  <ellipse cx="60" cy="70" rx="80" ry="98" fill="url(#br_flamm_a5_aura)"/>
  <ellipse cx="60" cy="101" rx="26.5" ry="44" fill="url(#br_flamm_a5_b)" stroke="#a02c08" stroke-width="1.8"/>
  <path d="M40,85.6 Q16.5,81.6 14.5,62.1" stroke="#ff6a10" stroke-width="5" fill="none" stroke-linecap="round"/>
  <path d="M80,85.6 Q103.5,81.6 105.5,62.1" stroke="#ff6a10" stroke-width="5" fill="none" stroke-linecap="round"/>
  <line x1="18.65" y1="36.95" x2="-2.96" y2="29.08" stroke="#fff2a0" stroke-width="1.4" stroke-opacity="0.55"/>
  <line x1="34.76" y1="15.96" x2="21.57" y2="-2.88" stroke="#fff2a0" stroke-width="1.4" stroke-opacity="0.55"/>
  <line x1="60" y1="8" x2="60" y2="-15" stroke="#fff2a0" stroke-width="1.4" stroke-opacity="0.55"/>
  <line x1="85.24" y1="15.96" x2="98.43" y2="-2.88" stroke="#fff2a0" stroke-width="1.4" stroke-opacity="0.55"/>
  <line x1="101.35" y1="36.95" x2="122.96" y2="29.08" stroke="#fff2a0" stroke-width="1.4" stroke-opacity="0.55"/>
  <circle cx="14" cy="32" r="3.1" fill="#fff2a0" fill-opacity="0.75"/>
  <circle cx="106" cy="32" r="3.1" fill="#fff2a0" fill-opacity="0.75"/>
  <circle cx="8" cy="62" r="3.1" fill="#fff2a0" fill-opacity="0.75"/>
  <circle cx="112" cy="62" r="3.1" fill="#fff2a0" fill-opacity="0.75"/>
  <circle cx="30" cy="10" r="3.1" fill="#fff2a0" fill-opacity="0.75"/>
  <circle cx="90" cy="10" r="3.1" fill="#fff2a0" fill-opacity="0.75"/>
  <ellipse cx="60" cy="52" rx="38" ry="35.72" fill="url(#br_flamm_a5)" stroke="#a02c08" stroke-width="1.8"/>
  <path d="M33.23,65.94 Q39.23,18.94 45.23,65.94 Q39.23,54.19 33.23,65.94Z" fill="#fff2a0" stroke="#fff6c0" stroke-width="0.6"/>
  <path d="M36.83,57.72 Q39.23,29.51 41.63,57.72Z" fill="#fff6c0" fill-opacity="0.85"/>
  <path d="M39.45,62.79 Q45.45,8.79 51.45,62.79 Q45.45,49.29 39.45,62.79Z" fill="#fff2a0" stroke="#fff6c0" stroke-width="0.6"/>
  <path d="M43.05,53.34 Q45.45,20.94 47.85,53.34Z" fill="#fff6c0" fill-opacity="0.85"/>
  <path d="M47.03,63.55 Q53.03,2.55 59.03,63.55 Q53.03,48.3 47.03,63.55Z" fill="#fff2a0" stroke="#fff6c0" stroke-width="0.6"/>
  <path d="M50.63,52.88 Q53.03,16.27 55.43,52.88Z" fill="#fff6c0" fill-opacity="0.85"/>
  <path d="M54,68 Q60,0 66,68 Q60,51 54,68Z" fill="#fff2a0" stroke="#fff6c0" stroke-width="0.6"/>
  <path d="M57.6,56.1 Q60,15.3 62.4,56.1Z" fill="#fff6c0" fill-opacity="0.85"/>
  <path d="M60.97,63.55 Q66.97,2.55 72.97,63.55 Q66.97,48.3 60.97,63.55Z" fill="#fff2a0" stroke="#fff6c0" stroke-width="0.6"/>
  <path d="M64.57,52.88 Q66.97,16.27 69.37,52.88Z" fill="#fff6c0" fill-opacity="0.85"/>
  <path d="M68.55,62.79 Q74.55,8.79 80.55,62.79 Q74.55,49.29 68.55,62.79Z" fill="#fff2a0" stroke="#fff6c0" stroke-width="0.6"/>
  <path d="M72.15,53.34 Q74.55,20.94 76.95,53.34Z" fill="#fff6c0" fill-opacity="0.85"/>
  <path d="M74.77,65.94 Q80.77,18.94 86.77,65.94 Q80.77,54.19 74.77,65.94Z" fill="#fff2a0" stroke="#fff6c0" stroke-width="0.6"/>
  <path d="M78.37,57.72 Q80.77,29.51 83.17,57.72Z" fill="#fff6c0" fill-opacity="0.85"/>
  <ellipse cx="52.5" cy="52" rx="5" ry="3.15" fill="white" stroke="#a02c08" stroke-width="1.2"/>
  <circle cx="52.5" cy="53" r="3" fill="#a02c08"/>
  <circle cx="53.7" cy="50.5" r="1.2" fill="white"/>
  <circle cx="51.6" cy="53.5" r="0.48" fill="white" fill-opacity="0.8"/>
  <ellipse cx="67.5" cy="52" rx="5" ry="3.15" fill="white" stroke="#a02c08" stroke-width="1.2"/>
  <circle cx="67.5" cy="53" r="3" fill="#a02c08"/>
  <circle cx="68.7" cy="50.5" r="1.2" fill="white"/>
  <circle cx="66.6" cy="53.5" r="0.48" fill="white" fill-opacity="0.8"/>
  <path d="M54,72.9 Q60,78.3 66,72.9" stroke="#a02c08" stroke-width="2.4" fill="none" stroke-linecap="round"/>
  <ellipse cx="30" cy="65.3" rx="7" ry="4.5" fill="#fff2a0" fill-opacity="0.6"/>
  <ellipse cx="90" cy="65.3" rx="7" ry="4.5" fill="#fff2a0" fill-opacity="0.6"/>

</svg>
