<svg xmlns="http://www.w3.org/2000/svg" viewBox="0 0 120 160">
  <defs>
    <radialGradient id="br_flamm_b3" cx="40%" cy="30%" r="65%">
      <stop offset="0%" stop-color="#ffb060"/>
      <stop offset="100%" stop-color="#c04010"/>
    </radialGradient>
    <radialGradient id="br_flamm_b3_b" cx="38%" cy="26%" r="68%">
      <stop offset="0%" stop-color="#e08030"/>
      <stop offset="100%" stop-color="#903010"/>
    </radialGradient>
  </defs>
  <ellipse cx="60" cy="153" rx="29" ry="9" fill="#241a14"/>
  <ellipse cx="60" cy="149" rx="20.3" ry="6" fill="#3a2418"/>
  <circle cx="60" cy="146" r="9" fill="#ff9020" fill-opacity="0.35"/>
  <ellipse cx="60" cy="104.6" rx="23.9" ry="38.4" fill="url(#br_flamm_b3_b)" stroke="#5c1e08" stroke-width="1.8"/>
  <path d="M40,91.16 Q21.5,87.16 19.5,72.66" stroke="#903010" stroke-width="5" fill="none" stroke-linecap="round"/>
  <path d="M80,91.16 Q98.5,87.16 100.5,72.66" stroke="#903010" stroke-width="5" fill="none" stroke-linecap="round"/>
  <ellipse cx="60" cy="56" rx="33.6" ry="31.58" fill="url(#br_flamm_b3)" stroke="#5c1e08" stroke-width="1.8"/>
  <path d="M36.65,64.08 Q41.65,30.08 46.65,64.08 Q41.65,55.58 36.65,64.08Z" fill="#ffcf80" stroke="#ffb060" stroke-width="0.6"/>
  <path d="M39.65,58.13 Q41.65,37.73 43.65,58.13Z" fill="#ffb060" fill-opacity="0.85"/>
  <path d="M44.96,59.41 Q49.96,18.41 54.96,59.41 Q49.96,49.16 44.96,59.41Z" fill="#ffcf80" stroke="#ffb060" stroke-width="0.6"/>
  <path d="M47.96,52.24 Q49.96,27.64 51.96,52.24Z" fill="#ffb060" fill-opacity="0.85"/>
  <path d="M55,62 Q60,14 65,62 Q60,50 55,62Z" fill="#ffcf80" stroke="#ffb060" stroke-width="0.6"/>
  <path d="M58,53.6 Q60,24.8 62,53.6Z" fill="#ffb060" fill-opacity="0.85"/>
  <path d="M65.04,59.41 Q70.04,18.41 75.04,59.41 Q70.04,49.16 65.04,59.41Z" fill="#ffcf80" stroke="#ffb060" stroke-width="0.6"/>
  <path d="M68.04,52.24 Q70.04,27.64 72.04,52.24Z" fill="#ffb060" fill-opacity="0.85"/>
  <path d="M73.35,64.08 Q78.35,30.08 83.35,64.08 Q78.35,55.58 73.35,64.08Z" fill="#ffcf80" stroke="#ffb060" stroke-width="0.6"/>
  <path d="M76.35,58.13 Q78.35,37.73 80.35,58.13Z" fill="#ffb060" fill-opacity="0.85"/>
  <ellipse cx="50.7" cy="56" rx="7" ry="5.67" fill="white" stroke="#5c1e08" stroke-width="1.2"/>
  <circle cx="50.7" cy="57" r="4.2" fill="#5c1e08"/>
  <path d="M44.4,47.95 Q50.7,45.5 57,47.95" stroke="#5c1e08" stroke-width="1.1" fill="none" stroke-linecap="round"/>
  <circle cx="52.17" cy="54.32" r="1.26" fill="white" fill-opacity="0.85"/>
  <ellipse cx="69.3" cy="56" rx="7" ry="5.67" fill="white" stroke="#5c1e08" stroke-width="1.2"/>
  <circle cx="69.3" cy="57" r="4.2" fill="#5c1e08"/>
  <path d="M63,47.95 Q69.3,45.5 75.6,47.95" stroke="#5c1e08" stroke-width="1.1" fill="none" stroke-linecap="round"/>
  <circle cx="70.77" cy="54.32" r="1.26" fill="white" fill-opacity="0.85"/>
  <path d="M54,74.48 Q60,76.88 66,74.48" stroke="#5c1e08" stroke-width="2" fill="none" stroke-linecap="round"/>
  <ellipse cx="30" cy="67.76" rx="7" ry="4.5" fill="#ffcf80" fill-opacity="0.2"/>
  <ellipse cx="90" cy="67.76" rx="7" ry="4.5" fill="#ffcf80" fill-opacity="0.2"/>

</svg>
