<svg xmlns="http://www.w3.org/2000/svg" viewBox="0 0 120 160">
  <defs>
    <radialGradient id="br_kiesel_a5" cx="40%" cy="30%" r="65%">
      <stop offset="0%" stop-color="#e8d8ff"/>
      <stop offset="100%" stop-color="#8858c0"/>
    </radialGradient>
    <radialGradient id="br_kiesel_a5_b" cx="38%" cy="26%" r="68%">
      <stop offset="0%" stop-color="#d0c0f8"/>
      <stop offset="100%" stop-color="#7040a8"/>
    </radialGradient>
    <radialGradient id="br_kiesel_a5_aura" cx="50%" cy="45%" r="55%">
      <stop offset="0%" stop-color="#c080f0" stop-opacity="0.4"/>
      <stop offset="100%" stop-color="#c080f0" stop-opacity="0"/>
    </radialGradient>
  </defs>
  <ellipse cx="60" cy="154" rx="37" ry="9" fill="#221e18"/>
  <ellipse cx="60" cy="150" rx="24.05" ry="5" fill="#38322a"/>
  <path d="M45.2,152 L60,146 L74.8,152" stroke="#4a4238" stroke-width="1.2" fill="none"/>
  <ellipse cx="60" cy="70" rx="80" ry="98" fill="url(#br_kiesel_a5_aura)"/>
  <ellipse cx="60" cy="101" rx="26.5" ry="44" fill="url(#br_kiesel_a5_b)" stroke="#3c2058" stroke-width="1.8"/>
  <polygon points="42,85.6 11,83.6 13,97" fill="#7040a8"/>
  <polygon points="78,85.6 109,83.6 107,97" fill="#7040a8"/>
  <line x1="18.65" y1="36.95" x2="-2.96" y2="29.08" stroke="#f0e0ff" stroke-width="1.4" stroke-opacity="0.55"/>
  <line x1="34.76" y1="15.96" x2="21.57" y2="-2.88" stroke="#f0e0ff" stroke-width="1.4" stroke-opacity="0.55"/>
  <line x1="60" y1="8" x2="60" y2="-15" stroke="#f0e0ff" stroke-width="1.4" stroke-opacity="0.55"/>
  <line x1="85.24" y1="15.96" x2="98.43" y2="-2.88" stroke="#f0e0ff" stroke-width="1.4" stroke-opacity="0.55"/>
  <line x1="101.35" y1="36.95" x2="122.96" y2="29.08" stroke="#f0e0ff" stroke-width="1.4" stroke-opacity="0.55"/>
  <circle cx="14" cy="32" r="3.1" fill="#f0e0ff" fill-opacity="0.75"/>
  <circle cx="106" cy="32" r="3.1" fill="#f0e0ff" fill-opacity="0.75"/>
  <circle cx="8" cy="62" r="3.1" fill="#f0e0ff" fill-opacity="0.75"/>
  <circle cx="112" cy="62" r="3.1" fill="#f0e0ff" fill-opacity="0.75"/>
  <circle cx="30" cy="10" r="3.1" fill="#f0e0ff" fill-opacity="0.75"/>
  <circle cx="90" cy="10" r="3.1" fill="#f0e0ff" fill-opacity="0.75"/>
  <ellipse cx="60" cy="52" rx="38" ry="35.72" fill="url(#br_kiesel_a5)" stroke="#3c2058" stroke-width="1.8"/>
  <polygon points="33,34 38,11.5 43,34" fill="#f0e0ff" stroke="#e8d8ff" stroke-width="0.6"/>
  <polygon points="36.25,30.63 38,14.88 39.75,30.63" fill="#e8d8ff" fill-opacity="0.8"/>
  <polygon points="40.33,34 45.33,8.5 50.33,34" fill="#f0e0ff" stroke="#e8d8ff" stroke-width="0.6"/>
  <polygon points="43.58,30.18 45.33,12.33 47.08,30.18" fill="#e8d8ff" fill-opacity="0.8"/>
  <polygon points="47.67,34 52.67,5.5 57.67,34" fill="#f0e0ff" stroke="#e8d8ff" stroke-width="0.6"/>
  <polygon points="50.92,29.73 52.67,9.77 54.42,29.73" fill="#e8d8ff" fill-opacity="0.8"/>
  <polygon points="55,34 60,2.5 65,34" fill="#f0e0ff" stroke="#e8d8ff" stroke-width="0.6"/>
  <polygon points="58.25,29.28 60,7.23 61.75,29.28" fill="#e8d8ff" fill-opacity="0.8"/>
  <polygon points="62.33,34 67.33,5.5 72.33,34" fill="#f0e0ff" stroke="#e8d8ff" stroke-width="0.6"/>
  <polygon points="65.58,29.73 67.33,9.77 69.08,29.73" fill="#e8d8ff" fill-opacity="0.8"/>
  <polygon points="69.67,34 74.67,8.5 79.67,34" fill="#f0e0ff" stroke="#e8d8ff" stroke-width="0.6"/>
  <polygon points="72.92,30.18 74.67,12.33 76.42,30.18" fill="#e8d8ff" fill-opacity="0.8"/>
  <polygon points="77,34 82,11.5 87,34" fill="#f0e0ff" stroke="#e8d8ff" stroke-width="0.6"/>
  <polygon points="80.25,30.63 82,14.88 83.75,30.63" fill="#e8d8ff" fill-opacity="0.8"/>
  <ellipse cx="52.5" cy="52" rx="5" ry="3.15" fill="white" stroke="#3c2058" stroke-width="1.2"/>
  <circle cx="52.5" cy="53" r="3" fill="#3c2058"/>
  <circle cx="53.7" cy="50.5" r="1.2" fill="white"/>
  <circle cx="51.6" cy="53.5" r="0.48" fill="white" fill-opacity="0.8"/>
  <ellipse cx="67.5" cy="52" rx="5" ry="3.15" fill="white" stroke="#3c2058" stroke-width="1.2"/>
  <circle cx="67.5" cy="53" r="3" fill="#3c2058"/>
  <circle cx="68.7" cy="50.5" r="1.2" fill="white"/>
  <circle cx="66.6" cy="53.5" r="0.48" fill="white" fill-opacity="0.8"/>
  <path d="M54,72.9 Q60,78.3 66,72.9" stroke="#3c2058" stroke-width="2.4" fill="none" stroke-linecap="round"/>
  <ellipse cx="30" cy="65.3" rx="7" ry="4.5" fill="#f0e0ff" fill-opacity="0.53"/>
  <ellipse cx="90" cy="65.3" rx="7" ry="4.5" fill="#f0e0ff" fill-opacity="0.53"/>

</svg>
