<svg xmlns="http://www.w3.org/2000/svg" viewBox="0 0 120 160">
  <defs>
    <radialGradient id="br_kiesel_b5" cx="40%" cy="30%" r="65%">
      <stop offset="0%" stop-color="#a8b8a0"/>
      <stop offset="100%" stop-color="#586858"/>
    </radialGradient>
    <radialGradient id="br_kiesel_b5_b" cx="38%" cy="26%" r="68%">
      <stop offset="0%" stop-color="#909c88"/>
      <stop offset="100%" stop-color="#404c40"/>
    </radialGradient>
  </defs>
  <ellipse cx="60" cy="154" rx="37" ry="9" fill="#221e18"/>
  <ellipse cx="60" cy="150" rx="24.05" ry="5" fill="#38322a"/>
  <path d="M45.2,152 L60,146 L74.8,152" stroke="#4a4238" stroke-width="1.2" fill="none"/>
  <ellipse cx="60" cy="101" rx="26.5" ry="44" fill="url(#br_kiesel_b5_b)" stroke="#242c22" stroke-width="1.8"/>
  <polygon points="42,85.6 11,83.6 13,97" fill="#404c40"/>
  <polygon points="78,85.6 109,83.6 107,97" fill="#404c40"/>
  <ellipse cx="60" cy="52" rx="38" ry="35.72" fill="url(#br_kiesel_b5)" stroke="#242c22" stroke-width="1.8"/>
  <polygon points="33,34 38,11.5 43,34" fill="#c8d4b8" stroke="#a8b8a0" stroke-width="0.6"/>
  <polygon points="36.25,30.63 38,14.88 39.75,30.63" fill="#a8b8a0" fill-opacity="0.8"/>
  <polygon points="40.33,34 45.33,8.5 50.33,34" fill="#c8d4b8" stroke="#a8b8a0" stroke-width="0.6"/>
  <polygon points="43.58,30.18 45.33,12.33 47.08,30.18" fill="#a8b8a0" fill-opacity="0.8"/>
  <polygon points="47.67,34 52.67,5.5 57.67,34" fill="#c8d4b8" stroke="#a8b8a0" stroke-width="0.6"/>
  <polygon points="50.92,29.73 52.67,9.77 54.42,29.73" fill="#a8b8a0" fill-opacity="0.8"/>
  <polygon points="55,34 60,2.5 65,34" fill="#c8d4b8" stroke="#a8b8a0" stroke-width="0.6"/>
  <polygon points="58.25,29.28 60,7.23 61.75,29.28" fill="#a8b8a0" fill-opacity="0.8"/>
  <polygon points="62.33,34 67.33,5.5 72.33,34" fill="#c8d4b8" stroke="#a8b8a0" stroke-width="0.6"/>
  <polygon points="65.58,29.73 67.33,9.77 69.08,29.73" fill="#a8b8a0" fill-opacity="0.8"/>
  <polygon points="69.67,34 74.67,8.5 79.67,34" fill="#c8d4b8" stroke="#a8b8a0" stroke-width="0.6"/>
  <polygon points="72.92,30.18 74.67,12.33 76.42,30.18" fill="#a8b8a0" fill-opacity="0.8"/>
  <polygon points="77,34 82,11.5 87,34" fill="#c8d4b8" stroke="#a8b8a0" stroke-width="0.6"/>
  <polygon points="80.25,30.63 82,14.88 83.75,30.63" fill="#a8b8a0" fill-opacity="0.8"/>
  <ellipse cx="52.5" cy="52" rx="5" ry="3.15" fill="white" stroke="#242c22" stroke-width="1.2"/>
  <circle cx="52.5" cy="53" r="3" fill="#242c22"/>
  <path d="M48,46.25 Q52.5,44.5 57,46.25" stroke="#242c22" stroke-width="1.1" fill="none" stroke-linecap="round"/>
  <circle cx="53.55" cy="50.8" r="0.9" fill="white" fill-opacity="0.85"/>
  <ellipse cx="67.5" cy="52" rx="5" ry="3.15" fill="white" stroke="#242c22" stroke-width="1.2"/>
  <circle cx="67.5" cy="53" r="3" fill="#242c22"/>
  <path d="M63,46.25 Q67.5,44.5 72,46.25" stroke="#242c22" stroke-width="1.1" fill="none" stroke-linecap="round"/>
  <circle cx="68.55" cy="50.8" r="0.9" fill="white" fill-opacity="0.85"/>
  <path d="M54,72.9 Q60,75.3 66,72.9" stroke="#242c22" stroke-width="2" fill="none" stroke-linecap="round"/>
  <ellipse cx="30" cy="65.3" rx="7" ry="4.5" fill="#c8d4b8" fill-opacity="0.15"/>
  <ellipse cx="90" cy="65.3" rx="7" ry="4.5" fill="#c8d4b8" fill-opacity="0.15"/>

</svg>
