<svg xmlns="http://www.w3.org/2000/svg" viewBox="0 0 120 160">
  <defs>
    <radialGradient id="br_kiesel_b2" cx="40%" cy="30%" r="65%">
      <stop offset="0%" stop-color="#a8b8a0"/>
      <stop offset="100%" stop-color="#586858"/>
    </radialGradient>
    <radialGradient id="br_kiesel_b2_b" cx="38%" cy="26%" r="68%">
      <stop offset="0%" stop-color="#909c88"/>
      <stop offset="100%" stop-color="#404c40"/>
    </radialGradient>
  </defs>
  <ellipse cx="60" cy="154" rx="28" ry="9" fill="#221e18"/>
  <ellipse cx="60" cy="150" rx="18.2" ry="5" fill="#38322a"/>
  <path d="M48.8,152 L60,146 L71.2,152" stroke="#4a4238" stroke-width="1.2" fill="none"/>
  <ellipse cx="60" cy="106.4" rx="22.6" ry="35.6" fill="url(#br_kiesel_b2_b)" stroke="#242c22" stroke-width="1.8"/>
  <polygon points="42,93.94 17,91.94 19,101.74" fill="#404c40"/>
  <polygon points="78,93.94 103,91.94 101,101.74" fill="#404c40"/>
  <ellipse cx="60" cy="58" rx="31.4" ry="29.52" fill="url(#br_kiesel_b2)" stroke="#242c22" stroke-width="1.8"/>
  <polygon points="34.2,40 38,26.5 41.8,40" fill="#c8d4b8" stroke="#a8b8a0" stroke-width="0.6"/>
  <polygon points="36.67,37.98 38,28.53 39.33,37.98" fill="#a8b8a0" fill-opacity="0.8"/>
  <polygon points="48.87,40 52.67,23.5 56.47,40" fill="#c8d4b8" stroke="#a8b8a0" stroke-width="0.6"/>
  <polygon points="51.34,37.53 52.67,25.98 54,37.53" fill="#a8b8a0" fill-opacity="0.8"/>
  <polygon points="63.53,40 67.33,23.5 71.13,40" fill="#c8d4b8" stroke="#a8b8a0" stroke-width="0.6"/>
  <polygon points="66,37.53 67.33,25.98 68.66,37.53" fill="#a8b8a0" fill-opacity="0.8"/>
  <polygon points="78.2,40 82,26.5 85.8,40" fill="#c8d4b8" stroke="#a8b8a0" stroke-width="0.6"/>
  <polygon points="80.67,37.98 82,28.53 83.33,37.98" fill="#a8b8a0" fill-opacity="0.8"/>
  <ellipse cx="49.8" cy="58" rx="8" ry="7.2" fill="white" stroke="#242c22" stroke-width="1.2"/>
  <circle cx="49.8" cy="59" r="4.8" fill="#242c22"/>
  <path d="M42.6,48.8 Q49.8,46 57,48.8" stroke="#242c22" stroke-width="1.1" fill="none" stroke-linecap="round"/>
  <circle cx="51.48" cy="56.08" r="1.44" fill="white" fill-opacity="0.85"/>
  <ellipse cx="70.2" cy="58" rx="8" ry="7.2" fill="white" stroke="#242c22" stroke-width="1.2"/>
  <circle cx="70.2" cy="59" r="4.8" fill="#242c22"/>
  <path d="M63,48.8 Q70.2,46 77.4,48.8" stroke="#242c22" stroke-width="1.1" fill="none" stroke-linecap="round"/>
  <circle cx="71.88" cy="56.08" r="1.44" fill="white" fill-opacity="0.85"/>
  <path d="M54,75.27 Q60,77.67 66,75.27" stroke="#242c22" stroke-width="2" fill="none" stroke-linecap="round"/>
  <ellipse cx="30" cy="68.99" rx="7" ry="4.5" fill="#c8d4b8" fill-opacity="0.15"/>
  <ellipse cx="90" cy="68.99" rx="7" ry="4.5" fill="#c8d4b8" fill-opacity="0.15"/>

</svg>
