<svg xmlns="http://www.w3.org/2000/svg" viewBox="0 0 120 160">
  <defs>
    <radialGradient id="br_kiesel_b1" cx="40%" cy="30%" r="65%">
      <stop offset="0%" stop-color="#a8b8a0"/>
      <stop offset="100%" stop-color="#586858"/>
    </radialGradient>
    <radialGradient id="br_kiesel_b1_b" cx="38%" cy="26%" r="68%">
      <stop offset="0%" stop-color="#909c88"/>
      <stop offset="100%" stop-color="#404c40"/>
    </radialGradient>
  </defs>
  <ellipse cx="60" cy="154" rx="25" ry="9" fill="#221e18"/>
  <ellipse cx="60" cy="150" rx="16.25" ry="5" fill="#38322a"/>
  <path d="M50,152 L60,146 L70,152" stroke="#4a4238" stroke-width="1.2" fill="none"/>
  <ellipse cx="60" cy="108.2" rx="21.3" ry="32.8" fill="url(#br_kiesel_b1_b)" stroke="#242c22" stroke-width="1.8"/>
  <polygon points="42,96.72 19,94.72 21,103.32" fill="#404c40"/>
  <polygon points="78,96.72 101,94.72 99,103.32" fill="#404c40"/>
  <ellipse cx="60" cy="60" rx="29.2" ry="27.45" fill="url(#br_kiesel_b1)" stroke="#242c22" stroke-width="1.8"/>
  <polygon points="34.6,42 38,31.5 41.4,42" fill="#c8d4b8" stroke="#a8b8a0" stroke-width="0.6"/>
  <polygon points="36.81,40.42 38,33.08 39.19,40.42" fill="#a8b8a0" fill-opacity="0.8"/>
  <polygon points="56.6,42 60,28.5 63.4,42" fill="#c8d4b8" stroke="#a8b8a0" stroke-width="0.6"/>
  <polygon points="58.81,39.98 60,30.53 61.19,39.98" fill="#a8b8a0" fill-opacity="0.8"/>
  <polygon points="78.6,42 82,31.5 85.4,42" fill="#c8d4b8" stroke="#a8b8a0" stroke-width="0.6"/>
  <polygon points="80.81,40.42 82,33.08 83.19,40.42" fill="#a8b8a0" fill-opacity="0.8"/>
  <ellipse cx="48.9" cy="60" rx="9" ry="8.91" fill="white" stroke="#242c22" stroke-width="1.2"/>
  <circle cx="48.9" cy="61" r="5.4" fill="#242c22"/>
  <path d="M40.8,49.65 Q48.9,46.5 57,49.65" stroke="#242c22" stroke-width="1.1" fill="none" stroke-linecap="round"/>
  <circle cx="50.79" cy="57.84" r="1.62" fill="white" fill-opacity="0.85"/>
  <ellipse cx="71.1" cy="60" rx="9" ry="8.91" fill="white" stroke="#242c22" stroke-width="1.2"/>
  <circle cx="71.1" cy="61" r="5.4" fill="#242c22"/>
  <path d="M63,49.65 Q71.1,46.5 79.2,49.65" stroke="#242c22" stroke-width="1.1" fill="none" stroke-linecap="round"/>
  <circle cx="72.99" cy="57.84" r="1.62" fill="white" fill-opacity="0.85"/>
  <path d="M54,76.06 Q60,78.46 66,76.06" stroke="#242c22" stroke-width="2" fill="none" stroke-linecap="round"/>
  <ellipse cx="30" cy="70.22" rx="7" ry="4.5" fill="#c8d4b8" fill-opacity="0.15"/>
  <ellipse cx="90" cy="70.22" rx="7" ry="4.5" fill="#c8d4b8" fill-opacity="0.15"/>

</svg>
