<svg xmlns="http://www.w3.org/2000/svg" viewBox="0 0 120 160">
  <defs>
    <radialGradient id="br_kiesel_a4" cx="40%" cy="30%" r="65%">
      <stop offset="0%" stop-color="#e8d8ff"/>
      <stop offset="100%" stop-color="#8858c0"/>
    </radialGradient>
    <radialGradient id="br_kiesel_a4_b" cx="38%" cy="26%" r="68%">
      <stop offset="0%" stop-color="#d0c0f8"/>
      <stop offset="100%" stop-color="#7040a8"/>
    </radialGradient>
    <radialGradient id="br_kiesel_a4_aura" cx="50%" cy="45%" r="55%">
      <stop offset="0%" stop-color="#c080f0" stop-opacity="0.35"/>
      <stop offset="100%" stop-color="#c080f0" stop-opacity="0"/>
    </radialGradient>
  </defs>
  <ellipse cx="60" cy="154" rx="34" ry="9" fill="#221e18"/>
  <ellipse cx="60" cy="150" rx="22.1" ry="5" fill="#38322a"/>
  <path d="M46.4,152 L60,146 L73.6,152" stroke="#4a4238" stroke-width="1.2" fill="none"/>
  <ellipse cx="60" cy="70" rx="76" ry="94" fill="url(#br_kiesel_a4_aura)"/>
  <ellipse cx="60" cy="102.8" rx="25.2" ry="41.2" fill="url(#br_kiesel_a4_b)" stroke="#3c2058" stroke-width="1.8"/>
  <polygon points="42,88.38 13,86.38 15,98.58" fill="#7040a8"/>
  <polygon points="78,88.38 107,86.38 105,98.58" fill="#7040a8"/>
  <line x1="20.53" y1="39.64" x2="1.74" y2="32.79" stroke="#f0e0ff" stroke-width="1.4" stroke-opacity="0.55"/>
  <line x1="35.91" y1="19.6" x2="24.44" y2="3.21" stroke="#f0e0ff" stroke-width="1.4" stroke-opacity="0.55"/>
  <line x1="60" y1="12" x2="60" y2="-8" stroke="#f0e0ff" stroke-width="1.4" stroke-opacity="0.55"/>
  <line x1="84.09" y1="19.6" x2="95.56" y2="3.21" stroke="#f0e0ff" stroke-width="1.4" stroke-opacity="0.55"/>
  <line x1="99.47" y1="39.64" x2="118.26" y2="32.79" stroke="#f0e0ff" stroke-width="1.4" stroke-opacity="0.55"/>
  <circle cx="14" cy="34" r="2.8" fill="#f0e0ff" fill-opacity="0.75"/>
  <circle cx="106" cy="34" r="2.8" fill="#f0e0ff" fill-opacity="0.75"/>
  <circle cx="8" cy="64" r="2.8" fill="#f0e0ff" fill-opacity="0.75"/>
  <circle cx="112" cy="64" r="2.8" fill="#f0e0ff" fill-opacity="0.75"/>
  <circle cx="30" cy="12" r="2.8" fill="#f0e0ff" fill-opacity="0.75"/>
  <circle cx="90" cy="12" r="2.8" fill="#f0e0ff" fill-opacity="0.75"/>
  <ellipse cx="60" cy="54" rx="35.8" ry="33.65" fill="url(#br_kiesel_a4)" stroke="#3c2058" stroke-width="1.8"/>
  <polygon points="33.4,36 38,16.5 42.6,36" fill="#f0e0ff" stroke="#e8d8ff" stroke-width="0.6"/>
  <polygon points="36.39,33.08 38,19.43 39.61,33.08" fill="#e8d8ff" fill-opacity="0.8"/>
  <polygon points="42.2,36 46.8,13.5 51.4,36" fill="#f0e0ff" stroke="#e8d8ff" stroke-width="0.6"/>
  <polygon points="45.19,32.63 46.8,16.88 48.41,32.63" fill="#e8d8ff" fill-opacity="0.8"/>
  <polygon points="51,36 55.6,10.5 60.2,36" fill="#f0e0ff" stroke="#e8d8ff" stroke-width="0.6"/>
  <polygon points="53.99,32.17 55.6,14.33 57.21,32.17" fill="#e8d8ff" fill-opacity="0.8"/>
  <polygon points="59.8,36 64.4,10.5 69,36" fill="#f0e0ff" stroke="#e8d8ff" stroke-width="0.6"/>
  <polygon points="62.79,32.17 64.4,14.33 66.01,32.17" fill="#e8d8ff" fill-opacity="0.8"/>
  <polygon points="68.6,36 73.2,13.5 77.8,36" fill="#f0e0ff" stroke="#e8d8ff" stroke-width="0.6"/>
  <polygon points="71.59,32.63 73.2,16.88 74.81,32.63" fill="#e8d8ff" fill-opacity="0.8"/>
  <polygon points="77.4,36 82,16.5 86.6,36" fill="#f0e0ff" stroke="#e8d8ff" stroke-width="0.6"/>
  <polygon points="80.39,33.08 82,19.43 83.61,33.08" fill="#e8d8ff" fill-opacity="0.8"/>
  <ellipse cx="51.6" cy="54" rx="6" ry="4.32" fill="white" stroke="#3c2058" stroke-width="1.2"/>
  <circle cx="51.6" cy="55" r="3.6" fill="#3c2058"/>
  <circle cx="53.04" cy="52.2" r="1.44" fill="white"/>
  <circle cx="50.52" cy="55.8" r="0.58" fill="white" fill-opacity="0.8"/>
  <ellipse cx="68.4" cy="54" rx="6" ry="4.32" fill="white" stroke="#3c2058" stroke-width="1.2"/>
  <circle cx="68.4" cy="55" r="3.6" fill="#3c2058"/>
  <circle cx="69.84" cy="52.2" r="1.44" fill="white"/>
  <circle cx="67.32" cy="55.8" r="0.58" fill="white" fill-opacity="0.8"/>
  <path d="M54,73.69 Q60,79.09 66,73.69" stroke="#3c2058" stroke-width="2.4" fill="none" stroke-linecap="round"/>
  <ellipse cx="30" cy="66.53" rx="7" ry="4.5" fill="#f0e0ff" fill-opacity="0.48000000000000004"/>
  <ellipse cx="90" cy="66.53" rx="7" ry="4.5" fill="#f0e0ff" fill-opacity="0.48000000000000004"/>

</svg>
