<svg xmlns="http://www.w3.org/2000/svg" viewBox="0 0 120 160">
  <defs>
    <radialGradient id="br_kiesel_c3" cx="40%" cy="30%" r="65%">
      <stop offset="0%" stop-color="#a09888"/>
      <stop offset="100%" stop-color="#5c5448"/>
    </radialGradient>
    <radialGradient id="br_kiesel_c3_b" cx="38%" cy="26%" r="68%">
      <stop offset="0%" stop-color="#8a8070"/>
      <stop offset="100%" stop-color="#443c30"/>
    </radialGradient>
  </defs>
  <ellipse cx="60" cy="154" rx="31" ry="9" fill="#221e18"/>
  <ellipse cx="60" cy="150" rx="20.15" ry="5" fill="#38322a"/>
  <path d="M47.6,152 L60,146 L72.4,152" stroke="#4a4238" stroke-width="1.2" fill="none"/>
  <ellipse cx="60" cy="104.6" rx="23.9" ry="38.4" fill="url(#br_kiesel_c3_b)" stroke="#241f18" stroke-width="1.8"/>
  <polygon points="42,91.16 15,89.16 17,100.16" fill="#443c30"/>
  <polygon points="78,91.16 105,89.16 103,100.16" fill="#443c30"/>
  <ellipse cx="60" cy="56" rx="33.6" ry="31.58" fill="url(#br_kiesel_c3)" stroke="#241f18" stroke-width="1.8"/>
  <polygon points="33.8,38 38,21.5 42.2,38" fill="#b8ac98" stroke="#a09888" stroke-width="0.6"/>
  <polygon points="36.53,35.53 38,23.98 39.47,35.53" fill="#a09888" fill-opacity="0.8"/>
  <polygon points="44.8,38 49,18.5 53.2,38" fill="#b8ac98" stroke="#a09888" stroke-width="0.6"/>
  <polygon points="47.53,35.08 49,21.43 50.47,35.08" fill="#a09888" fill-opacity="0.8"/>
  <polygon points="55.8,38 60,15.5 64.2,38" fill="#b8ac98" stroke="#a09888" stroke-width="0.6"/>
  <polygon points="58.53,34.63 60,18.88 61.47,34.63" fill="#a09888" fill-opacity="0.8"/>
  <polygon points="66.8,38 71,18.5 75.2,38" fill="#b8ac98" stroke="#a09888" stroke-width="0.6"/>
  <polygon points="69.53,35.08 71,21.43 72.47,35.08" fill="#a09888" fill-opacity="0.8"/>
  <polygon points="77.8,38 82,21.5 86.2,38" fill="#b8ac98" stroke="#a09888" stroke-width="0.6"/>
  <polygon points="80.53,35.53 82,23.98 83.47,35.53" fill="#a09888" fill-opacity="0.8"/>
  <path d="M42,112.84 l3,5 l-2,3 l3,4" stroke="#241f18" stroke-width="1" fill="none" stroke-opacity="0.5" stroke-linecap="round"/>
  <path d="M54,122.84 l3,5 l-2,3 l3,4" stroke="#241f18" stroke-width="1" fill="none" stroke-opacity="0.5" stroke-linecap="round"/>
  <path d="M66,112.84 l3,5 l-2,3 l3,4" stroke="#241f18" stroke-width="1" fill="none" stroke-opacity="0.5" stroke-linecap="round"/>
  <ellipse cx="48.9" cy="56" rx="7.8" ry="8.58" fill="#d8d8c8" stroke="#241f18" stroke-width="1.2"/>
  <circle cx="48.9" cy="57" r="4.68" fill="#241f18"/>
  <path d="M41.1,52.1 Q48.9,45.86 56.7,52.1" fill="#241f18" fill-opacity="0.55"/>
  <circle cx="47.5" cy="54.6" r="1.03" fill="white" fill-opacity="0.7"/>
  <ellipse cx="71.1" cy="56" rx="7.8" ry="8.58" fill="#d8d8c8" stroke="#241f18" stroke-width="1.2"/>
  <circle cx="71.1" cy="57" r="4.68" fill="#241f18"/>
  <path d="M63.3,52.1 Q71.1,45.86 78.9,52.1" fill="#241f18" fill-opacity="0.55"/>
  <circle cx="72.5" cy="54.6" r="1.03" fill="white" fill-opacity="0.7"/>
  <path d="M54,77.48 Q60,72.68 66,77.48" stroke="#241f18" stroke-width="2" fill="none" stroke-linecap="round"/>

</svg>
