<svg xmlns="http://www.w3.org/2000/svg" viewBox="0 0 120 160">
  <defs>
    <radialGradient id="br_kiesel_a2" cx="40%" cy="30%" r="65%">
      <stop offset="0%" stop-color="#e8d8ff"/>
      <stop offset="100%" stop-color="#8858c0"/>
    </radialGradient>
    <radialGradient id="br_kiesel_a2_b" cx="38%" cy="26%" r="68%">
      <stop offset="0%" stop-color="#d0c0f8"/>
      <stop offset="100%" stop-color="#7040a8"/>
    </radialGradient>
    <radialGradient id="br_kiesel_a2_aura" cx="50%" cy="45%" r="55%">
      <stop offset="0%" stop-color="#c080f0" stop-opacity="0.25"/>
      <stop offset="100%" stop-color="#c080f0" stop-opacity="0"/>
    </radialGradient>
  </defs>
  <ellipse cx="60" cy="154" rx="28" ry="9" fill="#221e18"/>
  <ellipse cx="60" cy="150" rx="18.2" ry="5" fill="#38322a"/>
  <path d="M48.8,152 L60,146 L71.2,152" stroke="#4a4238" stroke-width="1.2" fill="none"/>
  <ellipse cx="60" cy="70" rx="68" ry="86" fill="url(#br_kiesel_a2_aura)"/>
  <ellipse cx="60" cy="106.4" rx="22.6" ry="35.6" fill="url(#br_kiesel_a2_b)" stroke="#3c2058" stroke-width="1.8"/>
  <polygon points="42,93.94 17,91.94 19,101.74" fill="#7040a8"/>
  <polygon points="78,93.94 103,91.94 101,101.74" fill="#7040a8"/>
  <line x1="24.29" y1="45" x2="11.14" y2="40.21" stroke="#f0e0ff" stroke-width="1.4" stroke-opacity="0.55"/>
  <line x1="38.2" y1="26.87" x2="30.17" y2="15.4" stroke="#f0e0ff" stroke-width="1.4" stroke-opacity="0.55"/>
  <line x1="60" y1="20" x2="60" y2="6" stroke="#f0e0ff" stroke-width="1.4" stroke-opacity="0.55"/>
  <line x1="81.8" y1="26.87" x2="89.83" y2="15.4" stroke="#f0e0ff" stroke-width="1.4" stroke-opacity="0.55"/>
  <line x1="95.71" y1="45" x2="108.86" y2="40.21" stroke="#f0e0ff" stroke-width="1.4" stroke-opacity="0.55"/>
  <circle cx="14" cy="38" r="2.2" fill="#f0e0ff" fill-opacity="0.75"/>
  <circle cx="106" cy="38" r="2.2" fill="#f0e0ff" fill-opacity="0.75"/>
  <circle cx="8" cy="68" r="2.2" fill="#f0e0ff" fill-opacity="0.75"/>
  <circle cx="112" cy="68" r="2.2" fill="#f0e0ff" fill-opacity="0.75"/>
  <ellipse cx="60" cy="58" rx="31.4" ry="29.52" fill="url(#br_kiesel_a2)" stroke="#3c2058" stroke-width="1.8"/>
  <polygon points="34.2,40 38,26.5 41.8,40" fill="#f0e0ff" stroke="#e8d8ff" stroke-width="0.6"/>
  <polygon points="36.67,37.98 38,28.53 39.33,37.98" fill="#e8d8ff" fill-opacity="0.8"/>
  <polygon points="48.87,40 52.67,23.5 56.47,40" fill="#f0e0ff" stroke="#e8d8ff" stroke-width="0.6"/>
  <polygon points="51.34,37.53 52.67,25.98 54,37.53" fill="#e8d8ff" fill-opacity="0.8"/>
  <polygon points="63.53,40 67.33,23.5 71.13,40" fill="#f0e0ff" stroke="#e8d8ff" stroke-width="0.6"/>
  <polygon points="66,37.53 67.33,25.98 68.66,37.53" fill="#e8d8ff" fill-opacity="0.8"/>
  <polygon points="78.2,40 82,26.5 85.8,40" fill="#f0e0ff" stroke="#e8d8ff" stroke-width="0.6"/>
  <polygon points="80.67,37.98 82,28.53 83.33,37.98" fill="#e8d8ff" fill-opacity="0.8"/>
  <ellipse cx="49.8" cy="58" rx="8" ry="7.2" fill="white" stroke="#3c2058" stroke-width="1.2"/>
  <circle cx="49.8" cy="59" r="4.8" fill="#3c2058"/>
  <circle cx="51.72" cy="55.6" r="1.92" fill="white"/>
  <circle cx="48.36" cy="60.4" r="0.77" fill="white" fill-opacity="0.8"/>
  <ellipse cx="70.2" cy="58" rx="8" ry="7.2" fill="white" stroke="#3c2058" stroke-width="1.2"/>
  <circle cx="70.2" cy="59" r="4.8" fill="#3c2058"/>
  <circle cx="72.12" cy="55.6" r="1.92" fill="white"/>
  <circle cx="68.76" cy="60.4" r="0.77" fill="white" fill-opacity="0.8"/>
  <path d="M54,75.27 Q60,80.67 66,75.27" stroke="#3c2058" stroke-width="2.4" fill="none" stroke-linecap="round"/>
  <ellipse cx="30" cy="68.99" rx="7" ry="4.5" fill="#f0e0ff" fill-opacity="0.38"/>
  <ellipse cx="90" cy="68.99" rx="7" ry="4.5" fill="#f0e0ff" fill-opacity="0.38"/>

</svg>
