<svg xmlns="http://www.w3.org/2000/svg" viewBox="0 0 120 160">
  <defs>
    <radialGradient id="br_kiesel_b4" cx="40%" cy="30%" r="65%">
      <stop offset="0%" stop-color="#a8b8a0"/>
      <stop offset="100%" stop-color="#586858"/>
    </radialGradient>
    <radialGradient id="br_kiesel_b4_b" cx="38%" cy="26%" r="68%">
      <stop offset="0%" stop-color="#909c88"/>
      <stop offset="100%" stop-color="#404c40"/>
    </radialGradient>
  </defs>
  <ellipse cx="60" cy="154" rx="34" ry="9" fill="#221e18"/>
  <ellipse cx="60" cy="150" rx="22.1" ry="5" fill="#38322a"/>
  <path d="M46.4,152 L60,146 L73.6,152" stroke="#4a4238" stroke-width="1.2" fill="none"/>
  <ellipse cx="60" cy="102.8" rx="25.2" ry="41.2" fill="url(#br_kiesel_b4_b)" stroke="#242c22" stroke-width="1.8"/>
  <polygon points="42,88.38 13,86.38 15,98.58" fill="#404c40"/>
  <polygon points="78,88.38 107,86.38 105,98.58" fill="#404c40"/>
  <ellipse cx="60" cy="54" rx="35.8" ry="33.65" fill="url(#br_kiesel_b4)" stroke="#242c22" stroke-width="1.8"/>
  <polygon points="33.4,36 38,16.5 42.6,36" fill="#c8d4b8" stroke="#a8b8a0" stroke-width="0.6"/>
  <polygon points="36.39,33.08 38,19.43 39.61,33.08" fill="#a8b8a0" fill-opacity="0.8"/>
  <polygon points="42.2,36 46.8,13.5 51.4,36" fill="#c8d4b8" stroke="#a8b8a0" stroke-width="0.6"/>
  <polygon points="45.19,32.63 46.8,16.88 48.41,32.63" fill="#a8b8a0" fill-opacity="0.8"/>
  <polygon points="51,36 55.6,10.5 60.2,36" fill="#c8d4b8" stroke="#a8b8a0" stroke-width="0.6"/>
  <polygon points="53.99,32.17 55.6,14.33 57.21,32.17" fill="#a8b8a0" fill-opacity="0.8"/>
  <polygon points="59.8,36 64.4,10.5 69,36" fill="#c8d4b8" stroke="#a8b8a0" stroke-width="0.6"/>
  <polygon points="62.79,32.17 64.4,14.33 66.01,32.17" fill="#a8b8a0" fill-opacity="0.8"/>
  <polygon points="68.6,36 73.2,13.5 77.8,36" fill="#c8d4b8" stroke="#a8b8a0" stroke-width="0.6"/>
  <polygon points="71.59,32.63 73.2,16.88 74.81,32.63" fill="#a8b8a0" fill-opacity="0.8"/>
  <polygon points="77.4,36 82,16.5 86.6,36" fill="#c8d4b8" stroke="#a8b8a0" stroke-width="0.6"/>
  <polygon points="80.39,33.08 82,19.43 83.61,33.08" fill="#a8b8a0" fill-opacity="0.8"/>
  <ellipse cx="51.6" cy="54" rx="6" ry="4.32" fill="white" stroke="#242c22" stroke-width="1.2"/>
  <circle cx="51.6" cy="55" r="3.6" fill="#242c22"/>
  <path d="M46.2,47.1 Q51.6,45 57,47.1" stroke="#242c22" stroke-width="1.1" fill="none" stroke-linecap="round"/>
  <circle cx="52.86" cy="52.56" r="1.08" fill="white" fill-opacity="0.85"/>
  <ellipse cx="68.4" cy="54" rx="6" ry="4.32" fill="white" stroke="#242c22" stroke-width="1.2"/>
  <circle cx="68.4" cy="55" r="3.6" fill="#242c22"/>
  <path d="M63,47.1 Q68.4,45 73.8,47.1" stroke="#242c22" stroke-width="1.1" fill="none" stroke-linecap="round"/>
  <circle cx="69.66" cy="52.56" r="1.08" fill="white" fill-opacity="0.85"/>
  <path d="M54,73.69 Q60,76.09 66,73.69" stroke="#242c22" stroke-width="2" fill="none" stroke-linecap="round"/>
  <ellipse cx="30" cy="66.53" rx="7" ry="4.5" fill="#c8d4b8" fill-opacity="0.15"/>
  <ellipse cx="90" cy="66.53" rx="7" ry="4.5" fill="#c8d4b8" fill-opacity="0.15"/>

</svg>
