<svg xmlns="http://www.w3.org/2000/svg" viewBox="0 0 120 160">
  <defs>
    <radialGradient id="br_kiesel_a3" cx="40%" cy="30%" r="65%">
      <stop offset="0%" stop-color="#e8d8ff"/>
      <stop offset="100%" stop-color="#8858c0"/>
    </radialGradient>
    <radialGradient id="br_kiesel_a3_b" cx="38%" cy="26%" r="68%">
      <stop offset="0%" stop-color="#d0c0f8"/>
      <stop offset="100%" stop-color="#7040a8"/>
    </radialGradient>
    <radialGradient id="br_kiesel_a3_aura" cx="50%" cy="45%" r="55%">
      <stop offset="0%" stop-color="#c080f0" stop-opacity="0.3"/>
      <stop offset="100%" stop-color="#c080f0" stop-opacity="0"/>
    </radialGradient>
  </defs>
  <ellipse cx="60" cy="154" rx="31" ry="9" fill="#221e18"/>
  <ellipse cx="60" cy="150" rx="20.15" ry="5" fill="#38322a"/>
  <path d="M47.6,152 L60,146 L72.4,152" stroke="#4a4238" stroke-width="1.2" fill="none"/>
  <ellipse cx="60" cy="70" rx="72" ry="90" fill="url(#br_kiesel_a3_aura)"/>
  <ellipse cx="60" cy="104.6" rx="23.9" ry="38.4" fill="url(#br_kiesel_a3_b)" stroke="#3c2058" stroke-width="1.8"/>
  <polygon points="42,91.16 15,89.16 17,100.16" fill="#7040a8"/>
  <polygon points="78,91.16 105,89.16 103,100.16" fill="#7040a8"/>
  <line x1="22.41" y1="42.32" x2="6.44" y2="36.5" stroke="#f0e0ff" stroke-width="1.4" stroke-opacity="0.55"/>
  <line x1="37.06" y1="23.23" x2="27.31" y2="9.31" stroke="#f0e0ff" stroke-width="1.4" stroke-opacity="0.55"/>
  <line x1="60" y1="16" x2="60" y2="-1" stroke="#f0e0ff" stroke-width="1.4" stroke-opacity="0.55"/>
  <line x1="82.94" y1="23.23" x2="92.69" y2="9.31" stroke="#f0e0ff" stroke-width="1.4" stroke-opacity="0.55"/>
  <line x1="97.59" y1="42.32" x2="113.56" y2="36.5" stroke="#f0e0ff" stroke-width="1.4" stroke-opacity="0.55"/>
  <circle cx="14" cy="36" r="2.5" fill="#f0e0ff" fill-opacity="0.75"/>
  <circle cx="106" cy="36" r="2.5" fill="#f0e0ff" fill-opacity="0.75"/>
  <circle cx="8" cy="66" r="2.5" fill="#f0e0ff" fill-opacity="0.75"/>
  <circle cx="112" cy="66" r="2.5" fill="#f0e0ff" fill-opacity="0.75"/>
  <circle cx="30" cy="14" r="2.5" fill="#f0e0ff" fill-opacity="0.75"/>
  <circle cx="90" cy="14" r="2.5" fill="#f0e0ff" fill-opacity="0.75"/>
  <ellipse cx="60" cy="56" rx="33.6" ry="31.58" fill="url(#br_kiesel_a3)" stroke="#3c2058" stroke-width="1.8"/>
  <polygon points="33.8,38 38,21.5 42.2,38" fill="#f0e0ff" stroke="#e8d8ff" stroke-width="0.6"/>
  <polygon points="36.53,35.53 38,23.98 39.47,35.53" fill="#e8d8ff" fill-opacity="0.8"/>
  <polygon points="44.8,38 49,18.5 53.2,38" fill="#f0e0ff" stroke="#e8d8ff" stroke-width="0.6"/>
  <polygon points="47.53,35.08 49,21.43 50.47,35.08" fill="#e8d8ff" fill-opacity="0.8"/>
  <polygon points="55.8,38 60,15.5 64.2,38" fill="#f0e0ff" stroke="#e8d8ff" stroke-width="0.6"/>
  <polygon points="58.53,34.63 60,18.88 61.47,34.63" fill="#e8d8ff" fill-opacity="0.8"/>
  <polygon points="66.8,38 71,18.5 75.2,38" fill="#f0e0ff" stroke="#e8d8ff" stroke-width="0.6"/>
  <polygon points="69.53,35.08 71,21.43 72.47,35.08" fill="#e8d8ff" fill-opacity="0.8"/>
  <polygon points="77.8,38 82,21.5 86.2,38" fill="#f0e0ff" stroke="#e8d8ff" stroke-width="0.6"/>
  <polygon points="80.53,35.53 82,23.98 83.47,35.53" fill="#e8d8ff" fill-opacity="0.8"/>
  <ellipse cx="50.7" cy="56" rx="7" ry="5.67" fill="white" stroke="#3c2058" stroke-width="1.2"/>
  <circle cx="50.7" cy="57" r="4.2" fill="#3c2058"/>
  <circle cx="52.38" cy="53.9" r="1.68" fill="white"/>
  <circle cx="49.44" cy="58.1" r="0.67" fill="white" fill-opacity="0.8"/>
  <ellipse cx="69.3" cy="56" rx="7" ry="5.67" fill="white" stroke="#3c2058" stroke-width="1.2"/>
  <circle cx="69.3" cy="57" r="4.2" fill="#3c2058"/>
  <circle cx="70.98" cy="53.9" r="1.68" fill="white"/>
  <circle cx="68.04" cy="58.1" r="0.67" fill="white" fill-opacity="0.8"/>
  <path d="M54,74.48 Q60,79.88 66,74.48" stroke="#3c2058" stroke-width="2.4" fill="none" stroke-linecap="round"/>
  <ellipse cx="30" cy="67.76" rx="7" ry="4.5" fill="#f0e0ff" fill-opacity="0.43000000000000005"/>
  <ellipse cx="90" cy="67.76" rx="7" ry="4.5" fill="#f0e0ff" fill-opacity="0.43000000000000005"/>

</svg>
