<svg xmlns="http://www.w3.org/2000/svg" viewBox="0 0 120 160">
  <defs>
    <radialGradient id="head_b1" cx="42%" cy="35%" r="58%">
      <stop offset="0%" stop-color="#80c040"/>
      <stop offset="100%" stop-color="#4a8020"/>
    </radialGradient>
    <radialGradient id="body_b1" cx="40%" cy="32%" r="60%">
      <stop offset="0%" stop-color="#60a030"/>
      <stop offset="100%" stop-color="#3c6c18"/>
    </radialGradient>
  </defs>
  <!-- Roots - solid and grounded -->
  <path d="M48,149 Q43,157 37,164" stroke="#4a3010" stroke-width="6.5" fill="none" stroke-linecap="round"/>
  <path d="M56,151 Q54,158 52,165" stroke="#4a3010" stroke-width="5" fill="none" stroke-linecap="round"/>
  <path d="M64,151 Q66,158 68,165" stroke="#4a3010" stroke-width="5" fill="none" stroke-linecap="round"/>
  <path d="M72,149 Q77,157 83,164" stroke="#4a3010" stroke-width="6.5" fill="none" stroke-linecap="round"/>
  <!-- Body - deep green, solid -->
  <ellipse cx="60" cy="112" rx="20" ry="31" fill="url(#body_b1)" stroke="#38600e" stroke-width="1.5"/>
  <!-- Subtle moss texture hints -->
  <circle cx="50" cy="100" r="3" fill="#3a5c10" fill-opacity="0.4"/>
  <circle cx="70" cy="95" r="2.5" fill="#3a5c10" fill-opacity="0.4"/>
  <circle cx="55" cy="120" r="3.5" fill="#3a5c10" fill-opacity="0.35"/>
  <circle cx="68" cy="118" r="2.5" fill="#3a5c10" fill-opacity="0.35"/>
  <!-- Arm leaves - healthy, solid -->
  <path d="M40,107 Q19,96 25,76 Q36,100 44,105Z" fill="#4e8820" stroke="#386010" stroke-width="1.2"/>
  <path d="M80,107 Q101,96 95,76 Q84,100 76,105Z" fill="#4e8820" stroke="#386010" stroke-width="1.2"/>
  <!-- Head -->
  <ellipse cx="60" cy="72" rx="28" ry="27" fill="url(#head_b1)" stroke="#406818" stroke-width="1.5"/>
  <!-- Leaf hair - steady and balanced -->
  <path d="M39,55 Q29,30 48,23 Q44,48 48,53Z" fill="#488020" stroke="#346010" stroke-width="1.2"/>
  <path d="M51,49 Q46,23 62,17 Q58,42 58,49Z" fill="#569828" stroke="#3e7018" stroke-width="1.2"/>
  <path d="M64,48 Q68,22 56,17 Q62,42 62,48Z" fill="#569828" stroke="#3e7018" stroke-width="1.2"/>
  <path d="M73,52 Q83,28 67,22 Q71,47 69,52Z" fill="#488020" stroke="#346010" stroke-width="1.2"/>
  <path d="M78,59 Q90,37 76,30 Q73,52 72,58Z" fill="#387015" stroke="#285010" stroke-width="1.2"/>
  <!-- Small moss dots on leaves -->
  <circle cx="48" cy="30" r="2" fill="#2a5010" fill-opacity="0.5"/>
  <circle cx="60" cy="20" r="2" fill="#2a5010" fill-opacity="0.5"/>
  <!-- Eyes - calm and steady -->
  <ellipse cx="47" cy="72" rx="9.5" ry="10.5" fill="white" stroke="#346010" stroke-width="1"/>
  <ellipse cx="73" cy="72" rx="9.5" ry="10.5" fill="white" stroke="#346010" stroke-width="1"/>
  <circle cx="48" cy="73" r="6.5" fill="#102008"/>
  <circle cx="74" cy="73" r="6.5" fill="#102008"/>
  <circle cx="51" cy="70" r="2.8" fill="white"/>
  <circle cx="77" cy="70" r="2.8" fill="white"/>
  <!-- Calm content expression -->
  <path d="M51,87 Q60,93 69,87" stroke="#346010" stroke-width="2" fill="none" stroke-linecap="round"/>
  <!-- Subtle cheeks -->
  <ellipse cx="36" cy="81" rx="5" ry="3.5" fill="#70b028" fill-opacity="0.28"/>
  <ellipse cx="84" cy="81" rx="5" ry="3.5" fill="#70b028" fill-opacity="0.28"/>
</svg>
