<svg xmlns="http://www.w3.org/2000/svg" viewBox="0 0 120 160">
  <defs>
    <radialGradient id="head_a3" cx="40%" cy="32%" r="60%">
      <stop offset="0%" stop-color="#c0f870"/>
      <stop offset="100%" stop-color="#70b038"/>
    </radialGradient>
    <radialGradient id="aura_a3" cx="50%" cy="50%" r="50%">
      <stop offset="0%" stop-color="#f0d840" stop-opacity="0.55"/>
      <stop offset="100%" stop-color="#f0d840" stop-opacity="0"/>
    </radialGradient>
    <radialGradient id="body_a3" cx="38%" cy="30%" r="62%">
      <stop offset="0%" stop-color="#90d048"/>
      <stop offset="100%" stop-color="#60982e"/>
    </radialGradient>
  </defs>
  <!-- Golden aura expanding -->
  <ellipse cx="60" cy="78" rx="58" ry="76" fill="url(#aura_a3)"/>
  <!-- Roots -->
  <path d="M46,151 Q39,159 32,166" stroke="#5a3c16" stroke-width="7" fill="none" stroke-linecap="round"/>
  <path d="M55,153 Q52,160 50,167" stroke="#5a3c16" stroke-width="5.5" fill="none" stroke-linecap="round"/>
  <path d="M65,153 Q68,160 70,167" stroke="#5a3c16" stroke-width="5.5" fill="none" stroke-linecap="round"/>
  <path d="M74,151 Q81,159 88,166" stroke="#5a3c16" stroke-width="7" fill="none" stroke-linecap="round"/>
  <!-- Body with golden tinge -->
  <ellipse cx="60" cy="108" rx="22" ry="34" fill="url(#body_a3)" stroke="#58942e" stroke-width="1.5"/>
  <!-- Golden leaf vein highlights -->
  <path d="M50,86 Q60,98 70,86" stroke="#c8a020" stroke-width="1.2" fill="none" stroke-opacity="0.7"/>
  <path d="M48,102 Q60,114 72,102" stroke="#c8a020" stroke-width="1.2" fill="none" stroke-opacity="0.7"/>
  <!-- Arm leaves - golden-tipped, flowing -->
  <path d="M38,104 Q11,86 21,60 Q34,90 42,102Z" fill="#6aaa34" stroke="#509025" stroke-width="1.3"/>
  <path d="M82,104 Q109,86 99,60 Q86,90 78,102Z" fill="#6aaa34" stroke="#509025" stroke-width="1.3"/>
  <!-- Gold tips on arms -->
  <path d="M21,60 Q14,52 19,48" stroke="#d4a818" stroke-width="2" fill="none" stroke-linecap="round"/>
  <path d="M99,60 Q106,52 101,48" stroke="#d4a818" stroke-width="2" fill="none" stroke-linecap="round"/>
  <!-- Head -->
  <ellipse cx="60" cy="64" rx="31" ry="29" fill="url(#head_a3)" stroke="#58942e" stroke-width="2"/>
  <!-- Flowing leaf hair - all gold-tipped -->
  <path d="M35,48 Q22,18 45,11 Q40,38 44,47Z" fill="#60962e" stroke="#44701e" stroke-width="1.3"/>
  <path d="M47,41 Q41,10 62,2 Q56,30 57,41Z" fill="#72b038" stroke="#508025" stroke-width="1.3"/>
  <path d="M65,40 Q70,9 58,2 Q64,30 63,40Z" fill="#72b038" stroke="#508025" stroke-width="1.3"/>
  <path d="M76,44 Q90,14 70,8 Q74,38 72,45Z" fill="#60962e" stroke="#44701e" stroke-width="1.3"/>
  <path d="M82,54 Q98,26 82,17 Q78,44 77,54Z" fill="#4a8022" stroke="#365e18" stroke-width="1.3"/>
  <!-- Gold tips on hair leaves -->
  <ellipse cx="43" cy="11" rx="4" ry="3" fill="#e8c820" transform="rotate(-15,43,11)"/>
  <ellipse cx="60" cy="2" rx="4" ry="3" fill="#f0d020"/>
  <ellipse cx="70" cy="8" rx="4" ry="3" fill="#e8c820" transform="rotate(15,70,8)"/>
  <!-- FLOWER CROWN - 5 flowers in arc -->
  <g transform="translate(30,30) rotate(-30)">
    <circle cx="0" cy="-3" r="3" fill="#fff0a0" stroke="#d4b818" stroke-width="0.8"/>
    <circle cx="-3" cy="0" r="3" fill="#fff0a0" stroke="#d4b818" stroke-width="0.8"/>
    <circle cx="3" cy="0" r="3" fill="#fff0a0" stroke="#d4b818" stroke-width="0.8"/>
    <circle cx="0" cy="0" r="4.5" fill="#ffd820" stroke="#c0a010" stroke-width="1"/>
    <circle cx="0" cy="0" r="2" fill="#e05818"/>
  </g>
  <g transform="translate(45,15)">
    <circle cx="0" cy="-4" r="3.5" fill="#fff0a0" stroke="#d4b818" stroke-width="0.8"/>
    <circle cx="-3.5" cy="0" r="3.5" fill="#fff0a0" stroke="#d4b818" stroke-width="0.8"/>
    <circle cx="3.5" cy="0" r="3.5" fill="#fff0a0" stroke="#d4b818" stroke-width="0.8"/>
    <circle cx="-2" cy="-3" r="3.5" fill="#ffe860" stroke="#d4b818" stroke-width="0.8"/>
    <circle cx="2" cy="-3" r="3.5" fill="#ffe860" stroke="#d4b818" stroke-width="0.8"/>
    <circle cx="0" cy="0" r="5" fill="#ffd020" stroke="#c0a010" stroke-width="1.2"/>
    <circle cx="0" cy="0" r="2.5" fill="#e06018"/>
  </g>
  <g transform="translate(60,9)">
    <circle cx="0" cy="-5" r="4" fill="#fff8b0" stroke="#d4b818" stroke-width="1"/>
    <circle cx="-4" cy="0" r="4" fill="#fff8b0" stroke="#d4b818" stroke-width="1"/>
    <circle cx="4" cy="0" r="4" fill="#fff8b0" stroke="#d4b818" stroke-width="1"/>
    <circle cx="-2.5" cy="-3.5" r="4" fill="#ffe860" stroke="#d4b818" stroke-width="1"/>
    <circle cx="2.5" cy="-3.5" r="4" fill="#ffe860" stroke="#d4b818" stroke-width="1"/>
    <circle cx="0" cy="0" r="6" fill="#ffc820" stroke="#b89010" stroke-width="1.3"/>
    <circle cx="0" cy="0" r="3" fill="#e05818"/>
  </g>
  <g transform="translate(75,15)">
    <circle cx="0" cy="-4" r="3.5" fill="#fff0a0" stroke="#d4b818" stroke-width="0.8"/>
    <circle cx="-3.5" cy="0" r="3.5" fill="#fff0a0" stroke="#d4b818" stroke-width="0.8"/>
    <circle cx="3.5" cy="0" r="3.5" fill="#fff0a0" stroke="#d4b818" stroke-width="0.8"/>
    <circle cx="-2" cy="-3" r="3.5" fill="#ffe860" stroke="#d4b818" stroke-width="0.8"/>
    <circle cx="2" cy="-3" r="3.5" fill="#ffe860" stroke="#d4b818" stroke-width="0.8"/>
    <circle cx="0" cy="0" r="5" fill="#ffd020" stroke="#c0a010" stroke-width="1.2"/>
    <circle cx="0" cy="0" r="2.5" fill="#e06018"/>
  </g>
  <g transform="translate(90,30) rotate(30)">
    <circle cx="0" cy="-3" r="3" fill="#fff0a0" stroke="#d4b818" stroke-width="0.8"/>
    <circle cx="-3" cy="0" r="3" fill="#fff0a0" stroke="#d4b818" stroke-width="0.8"/>
    <circle cx="3" cy="0" r="3" fill="#fff0a0" stroke="#d4b818" stroke-width="0.8"/>
    <circle cx="0" cy="0" r="4.5" fill="#ffd820" stroke="#c0a010" stroke-width="1"/>
    <circle cx="0" cy="0" r="2" fill="#e05818"/>
  </g>
  <!-- Eyes - radiant joy -->
  <ellipse cx="45" cy="64" rx="10.5" ry="11.5" fill="white" stroke="#426c1e" stroke-width="1.2"/>
  <ellipse cx="75" cy="64" rx="10.5" ry="11.5" fill="white" stroke="#426c1e" stroke-width="1.2"/>
  <circle cx="46" cy="65" r="7" fill="#142210"/>
  <circle cx="76" cy="65" r="7" fill="#142210"/>
  <!-- Golden glint in eyes -->
  <circle cx="49.5" cy="61.5" r="3" fill="white"/>
  <circle cx="79.5" cy="61.5" r="3" fill="white"/>
  <circle cx="44" cy="67" r="1.2" fill="#f0d040" fill-opacity="0.7"/>
  <circle cx="74" cy="67" r="1.2" fill="#f0d040" fill-opacity="0.7"/>
  <!-- Beaming smile -->
  <path d="M47,80 Q60,93 73,80" stroke="#426c1e" stroke-width="2.5" fill="none" stroke-linecap="round"/>
  <path d="M50,84 Q60,90 70,84" stroke="#426c1e" stroke-width="1.5" fill="none" stroke-linecap="round"/>
  <!-- Strong cheeks -->
  <ellipse cx="33" cy="74" rx="7" ry="4.5" fill="#b0f040" fill-opacity="0.35"/>
  <ellipse cx="87" cy="74" rx="7" ry="4.5" fill="#b0f040" fill-opacity="0.35"/>
</svg>
