<svg xmlns="http://www.w3.org/2000/svg" viewBox="0 0 120 160">
  <defs>
    <radialGradient id="head_a1" cx="42%" cy="35%" r="58%">
      <stop offset="0%" stop-color="#a0e85a"/>
      <stop offset="100%" stop-color="#62a030"/>
    </radialGradient>
    <radialGradient id="glow_a1" cx="50%" cy="50%" r="50%">
      <stop offset="0%" stop-color="#f0e060" stop-opacity="0.35"/>
      <stop offset="100%" stop-color="#f0e060" stop-opacity="0"/>
    </radialGradient>
  </defs>
  <!-- Subtle warm glow around creature -->
  <ellipse cx="60" cy="85" rx="52" ry="70" fill="url(#glow_a1)"/>
  <!-- Root legs -->
  <path d="M48,149 Q43,156 37,163" stroke="#5a3c16" stroke-width="6.5" fill="none" stroke-linecap="round"/>
  <path d="M56,151 Q54,157 52,164" stroke="#5a3c16" stroke-width="5" fill="none" stroke-linecap="round"/>
  <path d="M64,151 Q66,157 68,164" stroke="#5a3c16" stroke-width="5" fill="none" stroke-linecap="round"/>
  <path d="M72,149 Q77,156 83,163" stroke="#5a3c16" stroke-width="6.5" fill="none" stroke-linecap="round"/>
  <!-- Body -->
  <ellipse cx="60" cy="113" rx="20" ry="31" fill="#78b83a" stroke="#4a8020" stroke-width="1.5"/>
  <!-- Body veins -->
  <path d="M54,96 Q60,106 66,96" stroke="#5a9028" stroke-width="0.8" fill="none" stroke-opacity="0.5"/>
  <path d="M52,110 Q60,120 68,110" stroke="#5a9028" stroke-width="0.8" fill="none" stroke-opacity="0.5"/>
  <!-- Arm leaves - bright and wide -->
  <path d="M40,108 Q18,94 25,75 Q36,100 44,107Z" fill="#62a030" stroke="#4a7c22" stroke-width="1.2"/>
  <path d="M80,108 Q102,94 95,75 Q84,100 76,107Z" fill="#62a030" stroke="#4a7c22" stroke-width="1.2"/>
  <!-- Head -->
  <ellipse cx="60" cy="72" rx="29" ry="27" fill="url(#head_a1)" stroke="#50882a" stroke-width="1.5"/>
  <!-- Rich leaf hair -->
  <path d="M39,55 Q29,30 48,24 Q44,48 48,53Z" fill="#52882a" stroke="#3e6820" stroke-width="1.2"/>
  <path d="M51,49 Q46,23 62,17 Q58,42 58,49Z" fill="#62a030" stroke="#488025" stroke-width="1.2"/>
  <path d="M64,48 Q68,22 56,17 Q62,42 62,48Z" fill="#62a030" stroke="#488025" stroke-width="1.2"/>
  <path d="M73,52 Q84,28 67,23 Q71,47 69,52Z" fill="#52882a" stroke="#3e6820" stroke-width="1.2"/>
  <path d="M78,59 Q91,37 77,30 Q74,52 73,58Z" fill="#3e7820" stroke="#2e5c18" stroke-width="1.2"/>
  <!-- FIRST FLOWERS on hair! -->
  <!-- Flower 1 - top center -->
  <circle cx="60" cy="13" r="3.5" fill="#f8e840" stroke="#d0c020" stroke-width="1"/>
  <circle cx="55" cy="16" r="3.5" fill="#f8e840" stroke="#d0c020" stroke-width="1"/>
  <circle cx="65" cy="16" r="3.5" fill="#f8e840" stroke="#d0c020" stroke-width="1"/>
  <circle cx="57" cy="10" r="3.5" fill="#f8e840" stroke="#d0c020" stroke-width="1"/>
  <circle cx="63" cy="10" r="3.5" fill="#f8e840" stroke="#d0c020" stroke-width="1"/>
  <circle cx="60" cy="13" r="5" fill="#ffe040" stroke="#c8a820" stroke-width="1.2"/>
  <!-- Flower center -->
  <circle cx="60" cy="13" r="2.5" fill="#e06020"/>
  <!-- Eyes - happy and bright -->
  <ellipse cx="47" cy="72" rx="9.5" ry="10.5" fill="white" stroke="#3e6818" stroke-width="1"/>
  <ellipse cx="73" cy="72" rx="9.5" ry="10.5" fill="white" stroke="#3e6818" stroke-width="1"/>
  <circle cx="48" cy="73" r="6.5" fill="#142210"/>
  <circle cx="74" cy="73" r="6.5" fill="#142210"/>
  <circle cx="51" cy="70" r="2.8" fill="white"/>
  <circle cx="77" cy="70" r="2.8" fill="white"/>
  <!-- Happy smile -->
  <path d="M50,87 Q60,96 70,87" stroke="#3e6818" stroke-width="2.2" fill="none" stroke-linecap="round"/>
  <!-- Cheeks blushing warmly -->
  <ellipse cx="37" cy="80" rx="5.5" ry="3.8" fill="#90e030" fill-opacity="0.35"/>
  <ellipse cx="83" cy="80" rx="5.5" ry="3.8" fill="#90e030" fill-opacity="0.35"/>
</svg>
