<svg xmlns="http://www.w3.org/2000/svg" viewBox="0 0 120 160">
  <defs>
    <radialGradient id="head_a4" cx="40%" cy="32%" r="60%">
      <stop offset="0%" stop-color="#d8ff90"/>
      <stop offset="100%" stop-color="#80c040"/>
    </radialGradient>
    <radialGradient id="aura_a4" cx="50%" cy="45%" r="55%">
      <stop offset="0%" stop-color="#f8e840" stop-opacity="0.65"/>
      <stop offset="100%" stop-color="#f8e840" stop-opacity="0"/>
    </radialGradient>
    <radialGradient id="body_a4" cx="36%" cy="28%" r="64%">
      <stop offset="0%" stop-color="#b0e860"/>
      <stop offset="100%" stop-color="#72a838"/>
    </radialGradient>
  </defs>
  <!-- Strong golden aura -->
  <ellipse cx="60" cy="75" rx="60" ry="78" fill="url(#aura_a4)"/>
  <!-- Roots - golden-tipped -->
  <path d="M45,152 Q38,161 30,168" stroke="#6a4820" stroke-width="7" fill="none" stroke-linecap="round"/>
  <path d="M54,154 Q51,162 49,169" stroke="#6a4820" stroke-width="5.5" fill="none" stroke-linecap="round"/>
  <path d="M66,154 Q69,162 71,169" stroke="#6a4820" stroke-width="5.5" fill="none" stroke-linecap="round"/>
  <path d="M75,152 Q82,161 90,168" stroke="#6a4820" stroke-width="7" fill="none" stroke-linecap="round"/>
  <!-- Root tips glowing gold -->
  <circle cx="30" cy="168" r="4" fill="#d4a020" fill-opacity="0.6"/>
  <circle cx="90" cy="168" r="4" fill="#d4a020" fill-opacity="0.6"/>
  <!-- Body - golden green, tall -->
  <ellipse cx="60" cy="106" rx="23" ry="36" fill="url(#body_a4)" stroke="#60982e" stroke-width="2"/>
  <!-- Golden vein network on body -->
  <path d="M48,80 Q60,95 72,80" stroke="#c8a018" stroke-width="1.5" fill="none" stroke-opacity="0.7"/>
  <path d="M46,98 Q60,112 74,98" stroke="#c8a018" stroke-width="1.5" fill="none" stroke-opacity="0.7"/>
  <path d="M48,116 Q60,128 72,116" stroke="#c8a018" stroke-width="1.2" fill="none" stroke-opacity="0.6"/>
  <!-- Arm leaves - majestic, long -->
  <path d="M37,102 Q8,82 19,52 Q33,86 41,100Z" fill="#74b03a" stroke="#549025" stroke-width="1.3"/>
  <path d="M83,102 Q112,82 101,52 Q87,86 79,100Z" fill="#74b03a" stroke="#549025" stroke-width="1.3"/>
  <!-- Golden arm tips -->
  <ellipse cx="19" cy="52" rx="6" ry="4" fill="#e0b018" transform="rotate(-25,19,52)"/>
  <ellipse cx="101" cy="52" rx="6" ry="4" fill="#e0b018" transform="rotate(25,101,52)"/>
  <!-- Small floating light particles -->
  <circle cx="20" cy="95" r="2.5" fill="#f8e840" fill-opacity="0.8"/>
  <circle cx="100" cy="95" r="2.5" fill="#f8e840" fill-opacity="0.8"/>
  <circle cx="15" cy="75" r="1.8" fill="#f8e840" fill-opacity="0.6"/>
  <circle cx="105" cy="78" r="1.8" fill="#f8e840" fill-opacity="0.6"/>
  <!-- Head - radiant -->
  <ellipse cx="60" cy="61" rx="32" ry="30" fill="url(#head_a4)" stroke="#60982e" stroke-width="2"/>
  <!-- Flowing leaf hair, all gold-tipped -->
  <path d="M33,45 Q18,12 44,4 Q38,34 42,44Z" fill="#68a030" stroke="#4c7820" stroke-width="1.4"/>
  <path d="M45,37 Q38,4 63,-4 Q56,26 57,37Z" fill="#7ebc3e" stroke="#5a8a28" stroke-width="1.4"/>
  <path d="M65,36 Q72,3 57,-4 Q64,26 63,36Z" fill="#7ebc3e" stroke="#5a8a28" stroke-width="1.4"/>
  <path d="M77,40 Q92,8 72,0 Q76,34 74,41Z" fill="#68a030" stroke="#4c7820" stroke-width="1.4"/>
  <path d="M84,52 Q101,20 84,10 Q80,42 79,53Z" fill="#528820" stroke="#3c6418" stroke-width="1.4"/>
  <!-- Gold tips on ALL hair -->
  <ellipse cx="44" cy="4" rx="5" ry="3.5" fill="#e8c010" transform="rotate(-20,44,4)"/>
  <ellipse cx="60" cy="-4" rx="5" ry="3.5" fill="#f0d020"/>
  <ellipse cx="72" cy="0" rx="5" ry="3.5" fill="#e8c010" transform="rotate(15,72,0)"/>
  <ellipse cx="84" cy="10" rx="4.5" ry="3" fill="#e0b818" transform="rotate(30,84,10)"/>
  <!-- FULL FLOWER CROWN - 7 flowers -->
  <g transform="translate(22,38) rotate(-40)">
    <circle cx="-3" cy="-3" r="3.5" fill="#fff0a0" stroke="#c8a818" stroke-width="1"/>
    <circle cx="3" cy="-3" r="3.5" fill="#fff0a0" stroke="#c8a818" stroke-width="1"/>
    <circle cx="0" cy="3" r="3.5" fill="#fff0a0" stroke="#c8a818" stroke-width="1"/>
    <circle cx="0" cy="-1" r="5" fill="#f8c820" stroke="#b89010" stroke-width="1.2"/>
    <circle cx="0" cy="-1" r="2.5" fill="#d04818"/>
  </g>
  <g transform="translate(36,20) rotate(-20)">
    <circle cx="-3.5" cy="-3.5" r="4" fill="#fffab0" stroke="#c8a818" stroke-width="1"/>
    <circle cx="3.5" cy="-3.5" r="4" fill="#fffab0" stroke="#c8a818" stroke-width="1"/>
    <circle cx="0" cy="4" r="4" fill="#fffab0" stroke="#c8a818" stroke-width="1"/>
    <circle cx="-4" cy="0" r="4" fill="#ffe860" stroke="#c8a818" stroke-width="1"/>
    <circle cx="4" cy="0" r="4" fill="#ffe860" stroke="#c8a818" stroke-width="1"/>
    <circle cx="0" cy="0" r="5.5" fill="#f8c018" stroke="#b08810" stroke-width="1.3"/>
    <circle cx="0" cy="0" r="2.5" fill="#d04818"/>
  </g>
  <g transform="translate(52,10)">
    <circle cx="-4" cy="-4" r="4.5" fill="#fffcc0" stroke="#c8a818" stroke-width="1"/>
    <circle cx="4" cy="-4" r="4.5" fill="#fffcc0" stroke="#c8a818" stroke-width="1"/>
    <circle cx="0" cy="5" r="4.5" fill="#fffcc0" stroke="#c8a818" stroke-width="1"/>
    <circle cx="-5" cy="1" r="4.5" fill="#ffe840" stroke="#c8a818" stroke-width="1"/>
    <circle cx="5" cy="1" r="4.5" fill="#ffe840" stroke="#c8a818" stroke-width="1"/>
    <circle cx="0" cy="0" r="6.5" fill="#f8b818" stroke="#a87808" stroke-width="1.5"/>
    <circle cx="0" cy="0" r="3.2" fill="#c84010"/>
  </g>
  <g transform="translate(68,10)">
    <circle cx="-4" cy="-4" r="4.5" fill="#fffcc0" stroke="#c8a818" stroke-width="1"/>
    <circle cx="4" cy="-4" r="4.5" fill="#fffcc0" stroke="#c8a818" stroke-width="1"/>
    <circle cx="0" cy="5" r="4.5" fill="#fffcc0" stroke="#c8a818" stroke-width="1"/>
    <circle cx="-5" cy="1" r="4.5" fill="#ffe840" stroke="#c8a818" stroke-width="1"/>
    <circle cx="5" cy="1" r="4.5" fill="#ffe840" stroke="#c8a818" stroke-width="1"/>
    <circle cx="0" cy="0" r="6.5" fill="#f8b818" stroke="#a87808" stroke-width="1.5"/>
    <circle cx="0" cy="0" r="3.2" fill="#c84010"/>
  </g>
  <g transform="translate(84,20) rotate(20)">
    <circle cx="-3.5" cy="-3.5" r="4" fill="#fffab0" stroke="#c8a818" stroke-width="1"/>
    <circle cx="3.5" cy="-3.5" r="4" fill="#fffab0" stroke="#c8a818" stroke-width="1"/>
    <circle cx="0" cy="4" r="4" fill="#fffab0" stroke="#c8a818" stroke-width="1"/>
    <circle cx="-4" cy="0" r="4" fill="#ffe860" stroke="#c8a818" stroke-width="1"/>
    <circle cx="4" cy="0" r="4" fill="#ffe860" stroke="#c8a818" stroke-width="1"/>
    <circle cx="0" cy="0" r="5.5" fill="#f8c018" stroke="#b08810" stroke-width="1.3"/>
    <circle cx="0" cy="0" r="2.5" fill="#d04818"/>
  </g>
  <g transform="translate(98,38) rotate(40)">
    <circle cx="-3" cy="-3" r="3.5" fill="#fff0a0" stroke="#c8a818" stroke-width="1"/>
    <circle cx="3" cy="-3" r="3.5" fill="#fff0a0" stroke="#c8a818" stroke-width="1"/>
    <circle cx="0" cy="3" r="3.5" fill="#fff0a0" stroke="#c8a818" stroke-width="1"/>
    <circle cx="0" cy="-1" r="5" fill="#f8c820" stroke="#b89010" stroke-width="1.2"/>
    <circle cx="0" cy="-1" r="2.5" fill="#d04818"/>
  </g>
  <!-- Eyes - stars/glowing -->
  <ellipse cx="44" cy="61" rx="11" ry="12" fill="white" stroke="#4a7820" stroke-width="1.2"/>
  <ellipse cx="76" cy="61" rx="11" ry="12" fill="white" stroke="#4a7820" stroke-width="1.2"/>
  <circle cx="45" cy="62" r="7.5" fill="#0e1a08"/>
  <circle cx="77" cy="62" r="7.5" fill="#0e1a08"/>
  <!-- Star glints in eyes -->
  <circle cx="49" cy="58" r="3.5" fill="white"/>
  <circle cx="81" cy="58" r="3.5" fill="white"/>
  <circle cx="43" cy="64.5" r="1.5" fill="white" fill-opacity="0.7"/>
  <circle cx="75" cy="64.5" r="1.5" fill="white" fill-opacity="0.7"/>
  <!-- Golden ring in eyes -->
  <circle cx="45" cy="62" r="5" fill="none" stroke="#f0c820" stroke-width="0.8" stroke-opacity="0.5"/>
  <circle cx="77" cy="62" r="5" fill="none" stroke="#f0c820" stroke-width="0.8" stroke-opacity="0.5"/>
  <!-- Radiant smile -->
  <path d="M46,78 Q60,94 74,78" stroke="#4a7820" stroke-width="2.8" fill="none" stroke-linecap="round"/>
  <!-- Glowing cheeks -->
  <ellipse cx="31" cy="71" rx="7.5" ry="5" fill="#c8f040" fill-opacity="0.4"/>
  <ellipse cx="89" cy="71" rx="7.5" ry="5" fill="#c8f040" fill-opacity="0.4"/>
</svg>
