<svg xmlns="http://www.w3.org/2000/svg" viewBox="0 0 120 160">
  <defs>
    <radialGradient id="head_b2" cx="40%" cy="33%" r="60%">
      <stop offset="0%" stop-color="#78b838"/>
      <stop offset="100%" stop-color="#426c18"/>
    </radialGradient>
    <radialGradient id="body_b2" cx="38%" cy="30%" r="62%">
      <stop offset="0%" stop-color="#589028"/>
      <stop offset="100%" stop-color="#345c10"/>
    </radialGradient>
  </defs>
  <!-- Roots - thick and earthy -->
  <path d="M47,150 Q40,158 33,166" stroke="#4a3010" stroke-width="7" fill="none" stroke-linecap="round"/>
  <path d="M55,152 Q53,160 51,167" stroke="#4a3010" stroke-width="5.5" fill="none" stroke-linecap="round"/>
  <path d="M65,152 Q67,160 69,167" stroke="#4a3010" stroke-width="5.5" fill="none" stroke-linecap="round"/>
  <path d="M73,150 Q80,158 87,166" stroke="#4a3010" stroke-width="7" fill="none" stroke-linecap="round"/>
  <!-- Small secondary roots branching -->
  <path d="M33,166 Q28,170 24,168" stroke="#3a2808" stroke-width="3.5" fill="none" stroke-linecap="round"/>
  <path d="M87,166 Q92,170 96,168" stroke="#3a2808" stroke-width="3.5" fill="none" stroke-linecap="round"/>
  <!-- Body - mossy texture -->
  <ellipse cx="60" cy="110" rx="21" ry="33" fill="url(#body_b2)" stroke="#305808" stroke-width="1.5"/>
  <!-- Moss patches -->
  <circle cx="49" cy="96" r="4" fill="#2e5010" fill-opacity="0.5"/>
  <circle cx="70" cy="92" r="3.5" fill="#2e5010" fill-opacity="0.5"/>
  <circle cx="53" cy="114" r="4.5" fill="#2e5010" fill-opacity="0.45"/>
  <circle cx="69" cy="120" r="3.5" fill="#2e5010" fill-opacity="0.45"/>
  <circle cx="61" cy="100" r="3" fill="#2e5010" fill-opacity="0.4"/>
  <!-- Arm leaves - mossy -->
  <path d="M39,106 Q17,93 24,72 Q35,98 43,104Z" fill="#488018" stroke="#326008" stroke-width="1.2"/>
  <path d="M81,106 Q103,93 96,72 Q85,98 77,104Z" fill="#488018" stroke="#326008" stroke-width="1.2"/>
  <!-- Moss on arm leaves -->
  <circle cx="25" cy="78" r="3" fill="#284808" fill-opacity="0.6"/>
  <circle cx="95" cy="78" r="3" fill="#284808" fill-opacity="0.6"/>
  <!-- Head - deeper, more weathered green -->
  <ellipse cx="60" cy="70" rx="29" ry="27" fill="url(#head_b2)" stroke="#386010" stroke-width="1.5"/>
  <!-- Leafy hair with moss growing on it -->
  <path d="M37,53 Q26,27 47,20 Q43,46 47,52Z" fill="#406c18" stroke="#2e5010" stroke-width="1.3"/>
  <path d="M49,47 Q44,20 62,13 Q57,38 58,47Z" fill="#508420" stroke="#386818" stroke-width="1.3"/>
  <path d="M64,46 Q69,19 57,13 Q63,38 62,46Z" fill="#508420" stroke="#386818" stroke-width="1.3"/>
  <path d="M74,50 Q85,24 68,18 Q72,44 70,51Z" fill="#406c18" stroke="#2e5010" stroke-width="1.3"/>
  <path d="M79,58 Q92,34 77,26 Q74,50 73,58Z" fill="#305c10" stroke="#204008" stroke-width="1.3"/>
  <!-- Moss on hair -->
  <circle cx="46" cy="23" r="3" fill="#284808" fill-opacity="0.6"/>
  <circle cx="60" cy="14" r="3.5" fill="#284808" fill-opacity="0.55"/>
  <circle cx="77" cy="27" r="3" fill="#284808" fill-opacity="0.6"/>
  <!-- Small mushroom growing on left shoulder area -->
  <ellipse cx="36" cy="96" rx="5" ry="2.5" fill="#8a6030" stroke="#604020" stroke-width="0.8"/>
  <path d="M36,96 Q36,90 36,88" stroke="#6a4820" stroke-width="2" fill="none"/>
  <!-- Eyes - wise and thoughtful -->
  <ellipse cx="47" cy="70" rx="9.5" ry="10.5" fill="white" stroke="#306010" stroke-width="1"/>
  <ellipse cx="73" cy="70" rx="9.5" ry="10.5" fill="white" stroke="#306010" stroke-width="1"/>
  <circle cx="48" cy="71" r="6.5" fill="#0e1c06"/>
  <circle cx="74" cy="71" r="6.5" fill="#0e1c06"/>
  <circle cx="51" cy="68" r="2.8" fill="white"/>
  <circle cx="77" cy="68" r="2.8" fill="white"/>
  <!-- Thoughtful expression - slight eyebrow raise -->
  <path d="M41,62 Q47,60 53,62" stroke="#306010" stroke-width="1.5" fill="none" stroke-linecap="round"/>
  <path d="M67,62 Q73,60 79,62" stroke="#306010" stroke-width="1.5" fill="none" stroke-linecap="round"/>
  <!-- Neutral content smile -->
  <path d="M51,85 Q60,90 69,85" stroke="#306010" stroke-width="2" fill="none" stroke-linecap="round"/>
</svg>
